<svg width="128" height="128" viewBox="0 0 128 128" fill="none" xmlns="http://www.w3.org/2000/svg">
<g filter="url(#filter0_f_763_37)">
<path d="M58.7218 87.3706L46.8884 75.4886C41.0263 75.4886 28.6303 86.4231 24.2659 95.292C23.2215 99.2526 11.3879 95.292 23.2215 103.213C31.1105 107.174 58.7217 95.292 58.7218 87.3706Z" fill="url(#paint0_linear_763_37)"/>
<path d="M110 24C102.111 24 86.3332 31.9213 74.4996 43.8033C65.8634 52.4749 55.1264 63.256 53.0213 71.528L62.6662 81.2124C70.9044 79.0987 81.6414 68.3176 90.2776 59.646C102.111 47.764 110 31.9213 110 24Z" fill="#D9D9D9"/>
<path d="M110 24C102.111 24 86.3332 31.9213 74.4996 43.8033C65.8634 52.4749 55.1264 63.256 53.0213 71.528L62.6662 81.2124C70.9044 79.0987 81.6414 68.3176 90.2776 59.646C102.111 47.764 110 31.9213 110 24Z" fill="url(#paint1_linear_763_37)"/>
</g>
<path d="M58.7218 87.3706L46.8884 75.4886C41.0263 75.4886 28.6303 86.4231 24.2659 95.292C23.2215 99.2526 11.3879 95.292 23.2215 103.213C31.1105 107.174 58.7217 95.292 58.7218 87.3706Z" fill="url(#paint2_linear_763_37)"/>
<path d="M110 24C102.111 24 86.3332 31.9213 74.4996 43.8033C65.8634 52.4749 55.1264 63.256 53.0213 71.528L62.6662 81.2124C70.9044 79.0987 81.6414 68.3176 90.2776 59.646C102.111 47.764 110 31.9213 110 24Z" fill="#D9D9D9"/>
<path d="M110 24C102.111 24 86.3332 31.9213 74.4996 43.8033C65.8634 52.4749 55.1264 63.256 53.0213 71.528L62.6662 81.2124C70.9044 79.0987 81.6414 68.3176 90.2776 59.646C102.111 47.764 110 31.9213 110 24Z" fill="url(#paint3_linear_763_37)"/>
<defs>
<filter id="filter0_f_763_37" x="2" y="8" width="124" height="112" filterUnits="userSpaceOnUse" color-interpolation-filters="sRGB">
<feFlood flood-opacity="0" result="BackgroundImageFix"/>
<feBlend mode="normal" in="SourceGraphic" in2="BackgroundImageFix" result="shape"/>
<feGaussianBlur stdDeviation="8" result="effect1_foregroundBlur_763_37"/>
</filter>
<linearGradient id="paint0_linear_763_37" x1="52" y1="81" x2="-1.5" y2="114.5" gradientUnits="userSpaceOnUse">
<stop stop-color="#D5FFF5"/>
<stop offset="1" stop-color="white"/>
</linearGradient>
<linearGradient id="paint1_linear_763_37" x1="110" y1="25.758" x2="58" y2="76" gradientUnits="userSpaceOnUse">
<stop stop-color="#0066FF"/>
<stop offset="1" stop-color="#47D7FF"/>
</linearGradient>
<linearGradient id="paint2_linear_763_37" x1="52" y1="81" x2="-1.5" y2="114.5" gradientUnits="userSpaceOnUse">
<stop stop-color="#D5FFF5"/>
<stop offset="1" stop-color="white"/>
</linearGradient>
<linearGradient id="paint3_linear_763_37" x1="110" y1="25.758" x2="58" y2="76" gradientUnits="userSpaceOnUse">
<stop stop-color="#0066FF"/>
<stop offset="1" stop-color="#47D7FF"/>
</linearGradient>
</defs>
</svg>
