<svg width="128" height="128" viewBox="0 0 128 128" fill="none" xmlns="http://www.w3.org/2000/svg">
<g clip-path="url(#clip0_783_89)">
<g filter="url(#filter0_f_783_89)">
<path d="M16.1862 31.2558C21.3629 23.5538 31.669 20.6972 41.2963 27.1683L21.2366 57.0134C11.6091 50.5425 10.0389 40.4019 16.1862 31.2558Z" fill="url(#paint0_linear_783_89)"/>
<path d="M111.814 96.9272C106.637 104.629 96.3309 107.486 86.7036 101.015L106.763 71.1696C116.391 77.6404 117.961 87.7811 111.814 96.9272Z" fill="url(#paint1_linear_783_89)"/>
<path d="M46.0183 8.94629C54.8119 5.9813 64.73 9.98213 68.436 20.9743L34.3608 32.4636C30.6546 21.4716 35.5759 12.4672 46.0183 8.94629Z" fill="url(#paint2_linear_783_89)"/>
<path d="M81.9817 119.237C73.1881 122.202 63.27 118.201 59.564 107.209L93.6392 95.7194C97.3454 106.711 92.4241 115.716 81.9817 119.237Z" fill="url(#paint3_linear_783_89)"/>
<path d="M111.814 31.2558C106.637 23.5538 96.3309 20.6972 86.7035 27.1683L106.763 57.0134C116.391 50.5425 117.961 40.4019 111.814 31.2558Z" fill="url(#paint4_linear_783_89)"/>
<path d="M16.1862 96.9272C21.3629 104.629 31.669 107.486 41.2963 101.015L21.2366 71.1696C11.6091 77.6404 10.0389 87.7811 16.1862 96.9272Z" fill="url(#paint5_linear_783_89)"/>
<path d="M81.9816 8.94629C73.188 5.9813 63.2699 9.98213 59.5639 20.9743L93.6391 32.4636C97.3453 21.4716 92.424 12.4672 81.9816 8.94629Z" fill="url(#paint6_linear_783_89)"/>
<path d="M46.0182 119.237C54.8117 122.202 64.7299 118.201 68.4359 107.209L34.3607 95.7194C30.6545 106.711 35.5758 115.716 46.0182 119.237Z" fill="url(#paint7_linear_783_89)"/>
<path d="M6 63.5116C6 54.2316 12.96 46.1116 24.5601 46.1119L24.5601 82.0719C12.9601 82.0719 6 74.5316 6 63.5116Z" fill="url(#paint8_linear_783_89)"/>
<path d="M122 64.6713C122 73.9513 115.04 82.0713 103.44 82.071V46.111C115.04 46.111 122 53.6513 122 64.6713Z" fill="url(#paint9_linear_783_89)"/>
<circle cx="64" cy="64.0915" r="50.46" fill="url(#paint10_linear_783_89)"/>
</g>
<path d="M16.1862 31.2558C21.3629 23.5538 31.669 20.6972 41.2963 27.1683L21.2366 57.0134C11.6091 50.5425 10.0389 40.4019 16.1862 31.2558Z" fill="url(#paint11_linear_783_89)"/>
<path d="M111.814 96.9272C106.637 104.629 96.3309 107.486 86.7036 101.015L106.763 71.1696C116.391 77.6404 117.961 87.7811 111.814 96.9272Z" fill="url(#paint12_linear_783_89)"/>
<path d="M46.0183 8.94629C54.8119 5.9813 64.73 9.98213 68.436 20.9743L34.3608 32.4636C30.6546 21.4716 35.5759 12.4672 46.0183 8.94629Z" fill="url(#paint13_linear_783_89)"/>
<path d="M81.9817 119.237C73.1881 122.202 63.27 118.201 59.564 107.209L93.6392 95.7194C97.3454 106.711 92.4241 115.716 81.9817 119.237Z" fill="url(#paint14_linear_783_89)"/>
<path d="M111.814 31.2558C106.637 23.5538 96.3309 20.6972 86.7035 27.1683L106.763 57.0134C116.391 50.5425 117.961 40.4019 111.814 31.2558Z" fill="url(#paint15_linear_783_89)"/>
<path d="M16.1862 96.9272C21.3629 104.629 31.669 107.486 41.2963 101.015L21.2366 71.1696C11.6091 77.6404 10.0389 87.7811 16.1862 96.9272Z" fill="url(#paint16_linear_783_89)"/>
<path d="M81.9816 8.94629C73.188 5.9813 63.2699 9.98213 59.5639 20.9743L93.6391 32.4636C97.3453 21.4716 92.424 12.4672 81.9816 8.94629Z" fill="url(#paint17_linear_783_89)"/>
<path d="M46.0182 119.237C54.8117 122.202 64.7299 118.201 68.4359 107.209L34.3607 95.7194C30.6545 106.711 35.5758 115.716 46.0182 119.237Z" fill="url(#paint18_linear_783_89)"/>
<path d="M6 63.5116C6 54.2316 12.96 46.1116 24.5601 46.1119L24.5601 82.0719C12.9601 82.0719 6 74.5316 6 63.5116Z" fill="url(#paint19_linear_783_89)"/>
<path d="M122 64.6713C122 73.9513 115.04 82.0713 103.44 82.071V46.111C115.04 46.111 122 53.6513 122 64.6713Z" fill="url(#paint20_linear_783_89)"/>
<circle cx="64" cy="64.0915" r="50.46" fill="url(#paint21_linear_783_89)"/>
<g opacity="0.5" filter="url(#filter1_f_783_89)">
<path d="M26.8802 64.9915L36.1602 55.6049L54.7202 74.3782L91.8402 36.8316L101.12 46.2182L54.7202 93.1515L26.8802 64.9915Z" fill="black"/>
<path d="M26.8802 64.9915L36.1602 55.6049L54.7202 74.3782L91.8402 36.8316L101.12 46.2182L54.7202 93.1515L26.8802 64.9915Z" stroke="white" stroke-width="3"/>
</g>
<g opacity="0.64" filter="url(#filter2_f_783_89)">
<path d="M26.8802 64.9915L36.1602 55.6049L54.7202 74.3782L91.8402 36.8316L101.12 46.2182L54.7202 93.1515L26.8802 64.9915Z" fill="#FDFFC7"/>
</g>
<path d="M26.8802 64.9915L36.1602 55.6049L54.7202 74.3782L91.8402 36.8316L101.12 46.2182L54.7202 93.1515L26.8802 64.9915Z" fill="white"/>
</g>
<defs>
<filter id="filter0_f_783_89" x="-2" y="0" width="132" height="128.183" filterUnits="userSpaceOnUse" color-interpolation-filters="sRGB">
<feFlood flood-opacity="0" result="BackgroundImageFix"/>
<feBlend mode="normal" in="SourceGraphic" in2="BackgroundImageFix" result="shape"/>
<feGaussianBlur stdDeviation="4" result="effect1_foregroundBlur_783_89"/>
</filter>
<filter id="filter1_f_783_89" x="8.77085" y="18.698" width="110.459" height="92.5871" filterUnits="userSpaceOnUse" color-interpolation-filters="sRGB">
<feFlood flood-opacity="0" result="BackgroundImageFix"/>
<feBlend mode="normal" in="SourceGraphic" in2="BackgroundImageFix" result="shape"/>
<feGaussianBlur stdDeviation="8" result="effect1_foregroundBlur_783_89"/>
</filter>
<filter id="filter2_f_783_89" x="6.88016" y="16.8316" width="114.24" height="96.32" filterUnits="userSpaceOnUse" color-interpolation-filters="sRGB">
<feFlood flood-opacity="0" result="BackgroundImageFix"/>
<feBlend mode="normal" in="SourceGraphic" in2="BackgroundImageFix" result="shape"/>
<feGaussianBlur stdDeviation="10" result="effect1_foregroundBlur_783_89"/>
</filter>
<linearGradient id="paint0_linear_783_89" x1="18.0389" y1="8" x2="109.961" y2="120.183" gradientUnits="userSpaceOnUse">
<stop stop-color="#FFF4CA"/>
<stop offset="0.495192" stop-color="#FFFDEE"/>
<stop offset="1" stop-color="#FFF1B8"/>
</linearGradient>
<linearGradient id="paint1_linear_783_89" x1="18.0389" y1="8" x2="109.961" y2="120.183" gradientUnits="userSpaceOnUse">
<stop stop-color="#FFF4CA"/>
<stop offset="0.495192" stop-color="#FFFDEE"/>
<stop offset="1" stop-color="#FFF1B8"/>
</linearGradient>
<linearGradient id="paint2_linear_783_89" x1="18.0389" y1="8" x2="109.961" y2="120.183" gradientUnits="userSpaceOnUse">
<stop stop-color="#FFF4CA"/>
<stop offset="0.495192" stop-color="#FFFDEE"/>
<stop offset="1" stop-color="#FFF1B8"/>
</linearGradient>
<linearGradient id="paint3_linear_783_89" x1="18.0389" y1="8" x2="109.961" y2="120.183" gradientUnits="userSpaceOnUse">
<stop stop-color="#FFF4CA"/>
<stop offset="0.495192" stop-color="#FFFDEE"/>
<stop offset="1" stop-color="#FFF1B8"/>
</linearGradient>
<linearGradient id="paint4_linear_783_89" x1="18.0389" y1="8" x2="109.961" y2="120.183" gradientUnits="userSpaceOnUse">
<stop stop-color="#FFF4CA"/>
<stop offset="0.495192" stop-color="#FFFDEE"/>
<stop offset="1" stop-color="#FFF1B8"/>
</linearGradient>
<linearGradient id="paint5_linear_783_89" x1="18.0389" y1="8" x2="109.961" y2="120.183" gradientUnits="userSpaceOnUse">
<stop stop-color="#FFF4CA"/>
<stop offset="0.495192" stop-color="#FFFDEE"/>
<stop offset="1" stop-color="#FFF1B8"/>
</linearGradient>
<linearGradient id="paint6_linear_783_89" x1="18.0389" y1="8" x2="109.961" y2="120.183" gradientUnits="userSpaceOnUse">
<stop stop-color="#FFF4CA"/>
<stop offset="0.495192" stop-color="#FFFDEE"/>
<stop offset="1" stop-color="#FFF1B8"/>
</linearGradient>
<linearGradient id="paint7_linear_783_89" x1="18.0389" y1="8" x2="109.961" y2="120.183" gradientUnits="userSpaceOnUse">
<stop stop-color="#FFF4CA"/>
<stop offset="0.495192" stop-color="#FFFDEE"/>
<stop offset="1" stop-color="#FFF1B8"/>
</linearGradient>
<linearGradient id="paint8_linear_783_89" x1="18.0389" y1="8" x2="109.961" y2="120.183" gradientUnits="userSpaceOnUse">
<stop stop-color="#FFF4CA"/>
<stop offset="0.495192" stop-color="#FFFDEE"/>
<stop offset="1" stop-color="#FFF1B8"/>
</linearGradient>
<linearGradient id="paint9_linear_783_89" x1="18.0389" y1="8" x2="109.961" y2="120.183" gradientUnits="userSpaceOnUse">
<stop stop-color="#FFF4CA"/>
<stop offset="0.495192" stop-color="#FFFDEE"/>
<stop offset="1" stop-color="#FFF1B8"/>
</linearGradient>
<linearGradient id="paint10_linear_783_89" x1="24.0138" y1="13.6315" x2="107.208" y2="111.822" gradientUnits="userSpaceOnUse">
<stop stop-color="#FFF4CA"/>
<stop offset="0.495192" stop-color="#FFFDEE"/>
<stop offset="1" stop-color="#FFF1B8"/>
</linearGradient>
<linearGradient id="paint11_linear_783_89" x1="13.4253" y1="2.29576" x2="115.719" y2="126.244" gradientUnits="userSpaceOnUse">
<stop stop-color="#F0B039"/>
<stop offset="0.495192" stop-color="#FAE590"/>
<stop offset="1" stop-color="#E38D2B"/>
</linearGradient>
<linearGradient id="paint12_linear_783_89" x1="13.4253" y1="2.29576" x2="115.719" y2="126.244" gradientUnits="userSpaceOnUse">
<stop stop-color="#F0B039"/>
<stop offset="0.495192" stop-color="#FAE590"/>
<stop offset="1" stop-color="#E38D2B"/>
</linearGradient>
<linearGradient id="paint13_linear_783_89" x1="13.4253" y1="2.29576" x2="115.719" y2="126.244" gradientUnits="userSpaceOnUse">
<stop stop-color="#F0B039"/>
<stop offset="0.495192" stop-color="#FAE590"/>
<stop offset="1" stop-color="#E38D2B"/>
</linearGradient>
<linearGradient id="paint14_linear_783_89" x1="13.4253" y1="2.29576" x2="115.719" y2="126.244" gradientUnits="userSpaceOnUse">
<stop stop-color="#F0B039"/>
<stop offset="0.495192" stop-color="#FAE590"/>
<stop offset="1" stop-color="#E38D2B"/>
</linearGradient>
<linearGradient id="paint15_linear_783_89" x1="13.4253" y1="2.29576" x2="115.719" y2="126.244" gradientUnits="userSpaceOnUse">
<stop stop-color="#F0B039"/>
<stop offset="0.495192" stop-color="#FAE590"/>
<stop offset="1" stop-color="#E38D2B"/>
</linearGradient>
<linearGradient id="paint16_linear_783_89" x1="13.4253" y1="2.29576" x2="115.719" y2="126.244" gradientUnits="userSpaceOnUse">
<stop stop-color="#F0B039"/>
<stop offset="0.495192" stop-color="#FAE590"/>
<stop offset="1" stop-color="#E38D2B"/>
</linearGradient>
<linearGradient id="paint17_linear_783_89" x1="13.4253" y1="2.29576" x2="115.719" y2="126.244" gradientUnits="userSpaceOnUse">
<stop stop-color="#F0B039"/>
<stop offset="0.495192" stop-color="#FAE590"/>
<stop offset="1" stop-color="#E38D2B"/>
</linearGradient>
<linearGradient id="paint18_linear_783_89" x1="13.4253" y1="2.29576" x2="115.719" y2="126.244" gradientUnits="userSpaceOnUse">
<stop stop-color="#F0B039"/>
<stop offset="0.495192" stop-color="#FAE590"/>
<stop offset="1" stop-color="#E38D2B"/>
</linearGradient>
<linearGradient id="paint19_linear_783_89" x1="13.4253" y1="2.29576" x2="115.719" y2="126.244" gradientUnits="userSpaceOnUse">
<stop stop-color="#F0B039"/>
<stop offset="0.495192" stop-color="#FAE590"/>
<stop offset="1" stop-color="#E38D2B"/>
</linearGradient>
<linearGradient id="paint20_linear_783_89" x1="13.4253" y1="2.29576" x2="115.719" y2="126.244" gradientUnits="userSpaceOnUse">
<stop stop-color="#F0B039"/>
<stop offset="0.495192" stop-color="#FAE590"/>
<stop offset="1" stop-color="#E38D2B"/>
</linearGradient>
<linearGradient id="paint21_linear_783_89" x1="20" y1="8.5" x2="112.559" y2="116.963" gradientUnits="userSpaceOnUse">
<stop stop-color="#F0B039"/>
<stop offset="0.495192" stop-color="#FAE590"/>
<stop offset="1" stop-color="#E38D2B"/>
</linearGradient>
<clipPath id="clip0_783_89">
<rect width="128" height="128" fill="white"/>
</clipPath>
</defs>
</svg>
