<svg width="128" height="128" viewBox="0 0 128 128" fill="none" xmlns="http://www.w3.org/2000/svg">
<g clip-path="url(#clip0_880_37)">
<g filter="url(#filter0_f_880_37)">
<path fill-rule="evenodd" clip-rule="evenodd" d="M64.0159 119.984L64 119.992L64.0159 120V119.984Z" fill="url(#paint0_linear_880_37)"/>
<path fill-rule="evenodd" clip-rule="evenodd" d="M64 119.992L63.984 119.984V120L64 119.992Z" fill="url(#paint1_linear_880_37)"/>
<path fill-rule="evenodd" clip-rule="evenodd" d="M64.0159 119.984H64.0319V120L64.0159 119.984Z" fill="url(#paint2_linear_880_37)"/>
<path fill-rule="evenodd" clip-rule="evenodd" d="M64.0159 120L64.0319 119.984H64.0159V120Z" fill="url(#paint3_linear_880_37)"/>
<path fill-rule="evenodd" clip-rule="evenodd" d="M64.0159 119.984L64 119.992L63.984 119.984C21.6748 96.9817 11.1772 72.6755 8 31.0137C22.9907 26.4351 32.4082 20.9064 35.4763 8H92.5396C95.6078 20.9064 105.025 26.4351 120.016 31.0137C116.839 72.6755 106.341 96.9817 64.0319 119.984H64.0159ZM63.984 25.3881H47.198C44.2898 35.4308 35.2065 38.8836 27 42C33.2092 75.2277 46.0963 87.1289 63.984 99.5231V25.3881Z" fill="url(#paint4_linear_880_37)"/>
</g>
<path fill-rule="evenodd" clip-rule="evenodd" d="M64.0159 119.984L64 119.992L64.0159 120V119.984Z" fill="url(#paint5_linear_880_37)"/>
<path fill-rule="evenodd" clip-rule="evenodd" d="M64 119.992L63.984 119.984V120L64 119.992Z" fill="url(#paint6_linear_880_37)"/>
<path fill-rule="evenodd" clip-rule="evenodd" d="M64.0159 119.984H64.0319V120L64.0159 119.984Z" fill="url(#paint7_linear_880_37)"/>
<path fill-rule="evenodd" clip-rule="evenodd" d="M64.0159 120L64.0319 119.984H64.0159V120Z" fill="url(#paint8_linear_880_37)"/>
<path fill-rule="evenodd" clip-rule="evenodd" d="M64.0159 119.984L64 119.992L63.984 119.984C21.6748 96.9817 11.1772 72.6755 8 31.0137C22.9907 26.4351 32.4082 20.9064 35.4763 8H92.5396C95.6078 20.9064 105.025 26.4351 120.016 31.0137C116.839 72.6755 106.341 96.9817 64.0319 119.984H64.0159ZM63.984 25.3881H47.198C44.2898 35.4308 35.2065 38.8836 27 42C33.2092 75.2277 46.0963 87.1289 63.984 99.5231V25.3881Z" fill="url(#paint9_linear_880_37)"/>
<g style="mix-blend-mode:plus-lighter" opacity="0.12" filter="url(#filter1_f_880_37)">
<path fill-rule="evenodd" clip-rule="evenodd" d="M64.0159 119.984L64 119.992L64.0159 120V119.984Z" fill="url(#paint10_linear_880_37)"/>
<path fill-rule="evenodd" clip-rule="evenodd" d="M64 119.992L63.984 119.984V120L64 119.992Z" fill="url(#paint11_linear_880_37)"/>
<path fill-rule="evenodd" clip-rule="evenodd" d="M64.0159 119.984H64.0319V120L64.0159 119.984Z" fill="url(#paint12_linear_880_37)"/>
<path fill-rule="evenodd" clip-rule="evenodd" d="M64.0159 120L64.0319 119.984H64.0159V120Z" fill="url(#paint13_linear_880_37)"/>
<path fill-rule="evenodd" clip-rule="evenodd" d="M64.0159 119.984L64 119.992L63.984 119.984C21.6748 96.9817 11.1772 72.6755 8 31.0137C22.9907 26.4351 32.4082 20.9064 35.4763 8H92.5396C95.6078 20.9064 105.025 26.4351 120.016 31.0137C116.839 72.6755 106.341 96.9817 64.0319 119.984H64.0159ZM63.984 25.3881H47.198C44.2898 35.4308 35.2065 38.8836 27 42C33.2092 75.2277 46.0963 87.1289 63.984 99.5231V25.3881Z" fill="url(#paint14_linear_880_37)"/>
</g>
<g style="mix-blend-mode:plus-lighter" opacity="0.27" filter="url(#filter2_f_880_37)">
<path fill-rule="evenodd" clip-rule="evenodd" d="M64.0159 119.984L64 119.992L64.0159 120V119.984Z" fill="url(#paint15_linear_880_37)"/>
<path fill-rule="evenodd" clip-rule="evenodd" d="M64 119.992L63.984 119.984V120L64 119.992Z" fill="url(#paint16_linear_880_37)"/>
<path fill-rule="evenodd" clip-rule="evenodd" d="M64.0159 119.984H64.0319V120L64.0159 119.984Z" fill="url(#paint17_linear_880_37)"/>
<path fill-rule="evenodd" clip-rule="evenodd" d="M64.0159 120L64.0319 119.984H64.0159V120Z" fill="url(#paint18_linear_880_37)"/>
<path fill-rule="evenodd" clip-rule="evenodd" d="M64.0159 119.984L64 119.992L63.984 119.984C21.6748 96.9817 11.1772 72.6755 8 31.0137C22.9907 26.4351 32.4082 20.9064 35.4763 8H92.5396C95.6078 20.9064 105.025 26.4351 120.016 31.0137C116.839 72.6755 106.341 96.9817 64.0319 119.984H64.0159ZM63.984 25.3881H47.198C44.2898 35.4308 35.2065 38.8836 27 42C33.2092 75.2277 46.0963 87.1289 63.984 99.5231V25.3881Z" fill="url(#paint19_linear_880_37)"/>
</g>
</g>
<defs>
<filter id="filter0_f_880_37" x="-1" y="-1" width="130.016" height="130" filterUnits="userSpaceOnUse" color-interpolation-filters="sRGB">
<feFlood flood-opacity="0" result="BackgroundImageFix"/>
<feBlend mode="normal" in="SourceGraphic" in2="BackgroundImageFix" result="shape"/>
<feGaussianBlur stdDeviation="4.5" result="effect1_foregroundBlur_880_37"/>
</filter>
<filter id="filter1_f_880_37" x="-2" y="-2" width="132.016" height="132" filterUnits="userSpaceOnUse" color-interpolation-filters="sRGB">
<feFlood flood-opacity="0" result="BackgroundImageFix"/>
<feBlend mode="normal" in="SourceGraphic" in2="BackgroundImageFix" result="shape"/>
<feGaussianBlur stdDeviation="5" result="effect1_foregroundBlur_880_37"/>
</filter>
<filter id="filter2_f_880_37" x="-4" y="-4" width="136.016" height="136" filterUnits="userSpaceOnUse" color-interpolation-filters="sRGB">
<feFlood flood-opacity="0" result="BackgroundImageFix"/>
<feBlend mode="normal" in="SourceGraphic" in2="BackgroundImageFix" result="shape"/>
<feGaussianBlur stdDeviation="6" result="effect1_foregroundBlur_880_37"/>
</filter>
<linearGradient id="paint0_linear_880_37" x1="15.1703" y1="2.30511" x2="117.889" y2="122.691" gradientUnits="userSpaceOnUse">
<stop stop-color="#F0C169"/>
<stop offset="0.495192" stop-color="#FFF4C7"/>
<stop offset="1" stop-color="#F5BD7C"/>
</linearGradient>
<linearGradient id="paint1_linear_880_37" x1="15.1703" y1="2.30511" x2="117.889" y2="122.691" gradientUnits="userSpaceOnUse">
<stop stop-color="#F0C169"/>
<stop offset="0.495192" stop-color="#FFF4C7"/>
<stop offset="1" stop-color="#F5BD7C"/>
</linearGradient>
<linearGradient id="paint2_linear_880_37" x1="15.1703" y1="2.30511" x2="117.889" y2="122.691" gradientUnits="userSpaceOnUse">
<stop stop-color="#F0C169"/>
<stop offset="0.495192" stop-color="#FFF4C7"/>
<stop offset="1" stop-color="#F5BD7C"/>
</linearGradient>
<linearGradient id="paint3_linear_880_37" x1="15.1703" y1="2.30511" x2="117.889" y2="122.691" gradientUnits="userSpaceOnUse">
<stop stop-color="#F0C169"/>
<stop offset="0.495192" stop-color="#FFF4C7"/>
<stop offset="1" stop-color="#F5BD7C"/>
</linearGradient>
<linearGradient id="paint4_linear_880_37" x1="15.1703" y1="2.30511" x2="117.889" y2="122.691" gradientUnits="userSpaceOnUse">
<stop stop-color="#F0C169"/>
<stop offset="0.495192" stop-color="#FFF4C7"/>
<stop offset="1" stop-color="#F5BD7C"/>
</linearGradient>
<linearGradient id="paint5_linear_880_37" x1="15.1703" y1="2.30511" x2="117.889" y2="122.691" gradientUnits="userSpaceOnUse">
<stop stop-color="#F0B039"/>
<stop offset="0.495192" stop-color="#FAE590"/>
<stop offset="1" stop-color="#E38D2B"/>
</linearGradient>
<linearGradient id="paint6_linear_880_37" x1="15.1703" y1="2.30511" x2="117.889" y2="122.691" gradientUnits="userSpaceOnUse">
<stop stop-color="#F0B039"/>
<stop offset="0.495192" stop-color="#FAE590"/>
<stop offset="1" stop-color="#E38D2B"/>
</linearGradient>
<linearGradient id="paint7_linear_880_37" x1="15.1703" y1="2.30511" x2="117.889" y2="122.691" gradientUnits="userSpaceOnUse">
<stop stop-color="#F0B039"/>
<stop offset="0.495192" stop-color="#FAE590"/>
<stop offset="1" stop-color="#E38D2B"/>
</linearGradient>
<linearGradient id="paint8_linear_880_37" x1="15.1703" y1="2.30511" x2="117.889" y2="122.691" gradientUnits="userSpaceOnUse">
<stop stop-color="#F0B039"/>
<stop offset="0.495192" stop-color="#FAE590"/>
<stop offset="1" stop-color="#E38D2B"/>
</linearGradient>
<linearGradient id="paint9_linear_880_37" x1="15.1703" y1="2.30511" x2="117.889" y2="122.691" gradientUnits="userSpaceOnUse">
<stop stop-color="#F0B039"/>
<stop offset="0.495192" stop-color="#FAE590"/>
<stop offset="1" stop-color="#E38D2B"/>
</linearGradient>
<linearGradient id="paint10_linear_880_37" x1="15.1703" y1="2.30511" x2="117.889" y2="122.691" gradientUnits="userSpaceOnUse">
<stop stop-color="#F0C169"/>
<stop offset="0.495192" stop-color="#FFF4C7"/>
<stop offset="1" stop-color="#F5BD7C"/>
</linearGradient>
<linearGradient id="paint11_linear_880_37" x1="15.1703" y1="2.30511" x2="117.889" y2="122.691" gradientUnits="userSpaceOnUse">
<stop stop-color="#F0C169"/>
<stop offset="0.495192" stop-color="#FFF4C7"/>
<stop offset="1" stop-color="#F5BD7C"/>
</linearGradient>
<linearGradient id="paint12_linear_880_37" x1="15.1703" y1="2.30511" x2="117.889" y2="122.691" gradientUnits="userSpaceOnUse">
<stop stop-color="#F0C169"/>
<stop offset="0.495192" stop-color="#FFF4C7"/>
<stop offset="1" stop-color="#F5BD7C"/>
</linearGradient>
<linearGradient id="paint13_linear_880_37" x1="15.1703" y1="2.30511" x2="117.889" y2="122.691" gradientUnits="userSpaceOnUse">
<stop stop-color="#F0C169"/>
<stop offset="0.495192" stop-color="#FFF4C7"/>
<stop offset="1" stop-color="#F5BD7C"/>
</linearGradient>
<linearGradient id="paint14_linear_880_37" x1="15.1703" y1="2.30511" x2="117.889" y2="122.691" gradientUnits="userSpaceOnUse">
<stop stop-color="#F0C169"/>
<stop offset="0.495192" stop-color="#FFF4C7"/>
<stop offset="1" stop-color="#F5BD7C"/>
</linearGradient>
<linearGradient id="paint15_linear_880_37" x1="16.0513" y1="8" x2="111.965" y2="120" gradientUnits="userSpaceOnUse">
<stop/>
<stop offset="0.129808"/>
<stop offset="0.466346" stop-color="white"/>
<stop offset="0.697115"/>
<stop offset="1"/>
</linearGradient>
<linearGradient id="paint16_linear_880_37" x1="16.0513" y1="8" x2="111.965" y2="120" gradientUnits="userSpaceOnUse">
<stop/>
<stop offset="0.129808"/>
<stop offset="0.466346" stop-color="white"/>
<stop offset="0.697115"/>
<stop offset="1"/>
</linearGradient>
<linearGradient id="paint17_linear_880_37" x1="16.0513" y1="8" x2="111.965" y2="120" gradientUnits="userSpaceOnUse">
<stop/>
<stop offset="0.129808"/>
<stop offset="0.466346" stop-color="white"/>
<stop offset="0.697115"/>
<stop offset="1"/>
</linearGradient>
<linearGradient id="paint18_linear_880_37" x1="16.0513" y1="8" x2="111.965" y2="120" gradientUnits="userSpaceOnUse">
<stop/>
<stop offset="0.129808"/>
<stop offset="0.466346" stop-color="white"/>
<stop offset="0.697115"/>
<stop offset="1"/>
</linearGradient>
<linearGradient id="paint19_linear_880_37" x1="16.0513" y1="8" x2="111.965" y2="120" gradientUnits="userSpaceOnUse">
<stop/>
<stop offset="0.129808"/>
<stop offset="0.466346" stop-color="white"/>
<stop offset="0.697115"/>
<stop offset="1"/>
</linearGradient>
<clipPath id="clip0_880_37">
<rect width="128" height="128" fill="white"/>
</clipPath>
</defs>
</svg>
