<svg width="128" height="128" viewBox="0 0 128 128" fill="none" xmlns="http://www.w3.org/2000/svg">
<path fill-rule="evenodd" clip-rule="evenodd" d="M71.625 9L45.8958 28.075L31 89.3875L51.3125 118L83.8125 96.2L96 29.4375L71.625 9ZM49.9583 30.8L71.625 15.8125L90.5833 30.8L78.3958 93.475L51.3125 111.187L36.4167 88.025L49.9583 30.8Z" fill="#56E6FF"/>
<path d="M68.9167 38.975L45.8958 70.3125V75.7625L68.9167 89.3875L72.9792 85.3L51.3125 71.675L72.9792 41.7L68.9167 38.975Z" fill="#56E6FF"/>
<g filter="url(#filter0_f_355_23)">
<path fill-rule="evenodd" clip-rule="evenodd" d="M71.625 9L45.8958 28.075L31 89.3875L51.3125 118L83.8125 96.2L96 29.4375L71.625 9ZM49.9583 30.8L71.625 15.8125L90.5833 30.8L78.3958 93.475L51.3125 111.187L36.4167 88.025L49.9583 30.8Z" fill="#56E6FF"/>
<path d="M68.9167 38.975L45.8958 70.3125V75.7625L68.9167 89.3875L72.9792 85.3L51.3125 71.675L72.9792 41.7L68.9167 38.975Z" fill="#56E6FF"/>
</g>
<defs>
<filter id="filter0_f_355_23" x="25" y="3" width="77" height="121" filterUnits="userSpaceOnUse" color-interpolation-filters="sRGB">
<feFlood flood-opacity="0" result="BackgroundImageFix"/>
<feBlend mode="normal" in="SourceGraphic" in2="BackgroundImageFix" result="shape"/>
<feGaussianBlur stdDeviation="3" result="effect1_foregroundBlur_355_23"/>
</filter>
</defs>
</svg>
