<svg width="128" height="128" viewBox="0 0 128 128" fill="none" xmlns="http://www.w3.org/2000/svg">
<g clip-path="url(#clip0_54_100)">
<g filter="url(#filter0_f_54_100)">
<circle cx="64" cy="64" r="56" fill="url(#paint0_radial_54_100)"/>
</g>
<g filter="url(#filter1_f_54_100)">
<circle cx="64" cy="67" r="54" fill="#6396F7"/>
<circle cx="64" cy="60" r="54" fill="url(#paint1_radial_54_100)"/>
<circle cx="64" cy="62" r="43" fill="#B0BDFF"/>
<circle cx="64" cy="60" r="43" fill="url(#paint2_radial_54_100)"/>
</g>
<circle cx="64" cy="67" r="54" fill="#3779F4"/>
<circle cx="64" cy="60" r="54" fill="url(#paint3_radial_54_100)"/>
<circle cx="64" cy="62" r="43" fill="#8B9EFF"/>
<circle cx="64" cy="60" r="43" fill="url(#paint4_radial_54_100)"/>
<path d="M48 88L55.7647 34H63.5294L56.5412 80.2857H81L79.0588 88H48Z" fill="url(#paint5_radial_54_100)" stroke="url(#paint6_radial_54_100)"/>
<g filter="url(#filter2_f_54_100)">
<path d="M48 87L55.7647 33H63.5294L56.5412 79.2857H81L79.0588 87H48Z" fill="url(#paint7_radial_54_100)"/>
<path d="M48 87L55.7647 33H63.5294L56.5412 79.2857H81L79.0588 87H48Z" stroke="url(#paint8_radial_54_100)"/>
</g>
<g filter="url(#filter3_f_54_100)">
<path d="M48 87L55.7647 33H63.5294L56.5412 79.2857H81L79.0588 87H48Z" fill="url(#paint9_radial_54_100)"/>
<path d="M48 87L55.7647 33H63.5294L56.5412 79.2857H81L79.0588 87H48Z" stroke="url(#paint10_radial_54_100)"/>
</g>
<path d="M48 87L55.7647 33H63.5294L56.5412 79.2857H81L79.0588 87H48Z" fill="url(#paint11_radial_54_100)" stroke="url(#paint12_radial_54_100)"/>
<g filter="url(#filter4_f_54_100)">
<path d="M44.0838 65.7694L40.4237 64.9025L38.0644 61.917C37.7637 61.6348 37.3323 61.7436 37.2016 62.1347L36.7568 65.8277L33.9461 68.3273C33.5572 68.6045 33.6421 68.9412 34.116 69.0006L37.7761 69.8675L40.0046 73.2441C40.3053 73.5264 40.7367 73.4175 40.8674 73.0265L41.2273 68.9968L44.2537 66.4427C44.6426 66.1656 44.5577 65.8289 44.0838 65.7694Z" fill="#5971AC" fill-opacity="0.58"/>
<g filter="url(#filter5_f_54_100)">
<path d="M43.7991 64.6411L40.1389 63.7742L37.7797 60.7886C37.479 60.5064 37.0476 60.6153 36.9169 61.0063L36.4721 64.6994L33.6614 67.199C33.2724 67.4761 33.3574 67.8128 33.8313 67.8723L37.4914 68.7392L39.7199 72.1158C40.0206 72.398 40.452 72.2892 40.5827 71.8981L40.9426 67.8684L43.969 65.3144C44.3579 65.0372 44.273 64.7006 43.7991 64.6411Z" fill="#5971AC" fill-opacity="0.58"/>
</g>
<path d="M43.7991 64.6411L40.1389 63.7742L37.7797 60.7886C37.479 60.5064 37.0476 60.6153 36.9169 61.0063L36.4721 64.6994L33.6614 67.199C33.2724 67.4761 33.3574 67.8128 33.8313 67.8723L37.4914 68.7392L39.7199 72.1158C40.0206 72.398 40.452 72.2892 40.5827 71.8981L40.9426 67.8684L43.969 65.3144C44.3579 65.0372 44.273 64.7006 43.7991 64.6411Z" fill="#5971AC" fill-opacity="0.58"/>
<path d="M43.9139 65.0962L40.2538 64.2293L37.8945 61.2437C37.5938 60.9615 37.1625 61.0703 37.0317 61.4614L36.5869 65.1545L33.7762 67.6541C33.3873 67.9312 33.4722 68.2679 33.9461 68.3274L37.6062 69.1943L39.8348 72.5709C40.1354 72.8531 40.5668 72.7442 40.6975 72.3532L41.0574 68.3235L44.0838 65.7695C44.4727 65.4923 44.3878 65.1556 43.9139 65.0962Z" fill="#5971AC" fill-opacity="0.58"/>
</g>
<g filter="url(#filter6_f_54_100)">
<path d="M90.1541 60.7082L86.1403 57.5092L84.9645 52.4516C84.7575 51.9284 84.1617 51.8118 83.7729 52.2185L81.0758 56.5185L76.1524 57.9691C75.5111 58.085 75.4201 58.55 75.9705 58.899L79.9843 62.098L80.7712 67.5623C80.9781 68.0856 81.574 68.2021 81.9628 67.7954L84.7509 63.0305L89.9722 61.6381C90.6135 61.5222 90.7045 61.0573 90.1541 60.7082Z" fill="#5971AC" fill-opacity="0.58"/>
<g filter="url(#filter7_f_54_100)">
<path d="M90.459 59.1498L86.4451 55.9508L85.2694 50.8932C85.0624 50.3699 84.4666 50.2534 84.0777 50.6601L81.3807 54.9601L76.4572 56.4107C75.8159 56.5266 75.725 56.9916 76.2753 57.3406L80.2892 60.5396L81.076 66.0039C81.283 66.5272 81.8788 66.6437 82.2677 66.237L85.0557 61.4721L90.2771 60.0797C90.9183 59.9638 91.0093 59.4988 90.459 59.1498Z" fill="#5971AC" fill-opacity="0.58"/>
</g>
<path d="M90.459 59.1498L86.4451 55.9508L85.2694 50.8932C85.0624 50.3699 84.4666 50.2534 84.0777 50.6601L81.3807 54.9601L76.4572 56.4107C75.8159 56.5266 75.725 56.9916 76.2753 57.3406L80.2892 60.5396L81.076 66.0039C81.283 66.5272 81.8788 66.6437 82.2677 66.237L85.0557 61.4721L90.2771 60.0797C90.9183 59.9638 91.0093 59.4988 90.459 59.1498Z" fill="#5971AC" fill-opacity="0.58"/>
<path d="M90.336 59.7783L86.3222 56.5793L85.1464 51.5217C84.9395 50.9985 84.3436 50.8819 83.9548 51.2886L81.2577 55.5886L76.3343 57.0392C75.693 57.1552 75.602 57.6201 76.1524 57.9692L80.1662 61.1682L80.9531 66.6325C81.16 67.1557 81.7559 67.2723 82.1447 66.8656L84.9328 62.1006L90.1541 60.7083C90.7954 60.5924 90.8864 60.1274 90.336 59.7783Z" fill="#5971AC" fill-opacity="0.58"/>
</g>
<path d="M44.0838 65.7694L40.4237 64.9025L38.0644 61.917C37.7637 61.6348 37.3323 61.7436 37.2016 62.1347L36.7568 65.8277L33.9461 68.3273C33.5572 68.6045 33.6421 68.9412 34.116 69.0006L37.7761 69.8675L40.0046 73.2441C40.3053 73.5264 40.7367 73.4175 40.8674 73.0265L41.2273 68.9968L44.2537 66.4427C44.6426 66.1656 44.5577 65.8289 44.0838 65.7694Z" fill="#51DCEC"/>
<g filter="url(#filter8_f_54_100)">
<path d="M43.7991 64.6411L40.1389 63.7742L37.7797 60.7886C37.479 60.5064 37.0476 60.6153 36.9169 61.0063L36.4721 64.6994L33.6614 67.199C33.2724 67.4761 33.3574 67.8128 33.8313 67.8723L37.4914 68.7392L39.7199 72.1158C40.0206 72.398 40.452 72.2892 40.5827 71.8981L40.9426 67.8684L43.969 65.3144C44.3579 65.0372 44.273 64.7006 43.7991 64.6411Z" fill="#CAFFFC"/>
</g>
<path d="M43.7991 64.6411L40.1389 63.7742L37.7797 60.7886C37.479 60.5064 37.0476 60.6153 36.9169 61.0063L36.4721 64.6994L33.6614 67.199C33.2724 67.4761 33.3574 67.8128 33.8313 67.8723L37.4914 68.7392L39.7199 72.1158C40.0206 72.398 40.452 72.2892 40.5827 71.8981L40.9426 67.8684L43.969 65.3144C44.3579 65.0372 44.273 64.7006 43.7991 64.6411Z" fill="#CAFFFC"/>
<path d="M43.9139 65.0962L40.2538 64.2293L37.8945 61.2437C37.5938 60.9615 37.1625 61.0703 37.0317 61.4614L36.5869 65.1545L33.7762 67.6541C33.3873 67.9312 33.4722 68.2679 33.9461 68.3274L37.6062 69.1943L39.8348 72.5709C40.1354 72.8531 40.5668 72.7442 40.6975 72.3532L41.0574 68.3235L44.0838 65.7695C44.4727 65.4923 44.3878 65.1556 43.9139 65.0962Z" fill="#92F8FF"/>
<path d="M90.1541 60.7082L86.1403 57.5092L84.9645 52.4516C84.7575 51.9284 84.1617 51.8118 83.7729 52.2185L81.0758 56.5185L76.1524 57.9691C75.5111 58.085 75.4201 58.55 75.9705 58.899L79.9843 62.098L80.7712 67.5623C80.9781 68.0856 81.574 68.2021 81.9628 67.7954L84.7509 63.0305L89.9722 61.6381C90.6135 61.5222 90.7045 61.0573 90.1541 60.7082Z" fill="#518FEC"/>
<g filter="url(#filter9_f_54_100)">
<path d="M90.459 59.1498L86.4451 55.9508L85.2694 50.8932C85.0624 50.3699 84.4666 50.2534 84.0777 50.6601L81.3807 54.9601L76.4572 56.4107C75.8159 56.5266 75.725 56.9916 76.2753 57.3406L80.2892 60.5396L81.076 66.0039C81.283 66.5272 81.8788 66.6437 82.2677 66.237L85.0557 61.4721L90.2771 60.0797C90.9183 59.9638 91.0093 59.4988 90.459 59.1498Z" fill="#CAD1FF"/>
</g>
<path d="M90.459 59.1498L86.4451 55.9508L85.2694 50.8932C85.0624 50.3699 84.4666 50.2534 84.0777 50.6601L81.3807 54.9601L76.4572 56.4107C75.8159 56.5266 75.725 56.9916 76.2753 57.3406L80.2892 60.5396L81.076 66.0039C81.283 66.5272 81.8788 66.6437 82.2677 66.237L85.0557 61.4721L90.2771 60.0797C90.9183 59.9638 91.0093 59.4988 90.459 59.1498Z" fill="#CAD1FF"/>
<path d="M90.336 59.7783L86.3222 56.5793L85.1464 51.5217C84.9395 50.9985 84.3436 50.8819 83.9548 51.2886L81.2577 55.5886L76.3343 57.0392C75.693 57.1552 75.602 57.6201 76.1524 57.9692L80.1662 61.1682L80.9531 66.6325C81.16 67.1557 81.7559 67.2723 82.1447 66.8656L84.9328 62.1006L90.1541 60.7083C90.7954 60.5924 90.8864 60.1274 90.336 59.7783Z" fill="#92B1FF"/>
</g>
<defs>
<filter id="filter0_f_54_100" x="0" y="0" width="128" height="128" filterUnits="userSpaceOnUse" color-interpolation-filters="sRGB">
<feFlood flood-opacity="0" result="BackgroundImageFix"/>
<feBlend mode="normal" in="SourceGraphic" in2="BackgroundImageFix" result="shape"/>
<feGaussianBlur stdDeviation="4" result="effect1_foregroundBlur_54_100"/>
</filter>
<filter id="filter1_f_54_100" x="0" y="-4" width="128" height="135" filterUnits="userSpaceOnUse" color-interpolation-filters="sRGB">
<feFlood flood-opacity="0" result="BackgroundImageFix"/>
<feBlend mode="normal" in="SourceGraphic" in2="BackgroundImageFix" result="shape"/>
<feGaussianBlur stdDeviation="5" result="effect1_foregroundBlur_54_100"/>
</filter>
<filter id="filter2_f_54_100" x="41.423" y="26.5" width="46.2184" height="67" filterUnits="userSpaceOnUse" color-interpolation-filters="sRGB">
<feFlood flood-opacity="0" result="BackgroundImageFix"/>
<feBlend mode="normal" in="SourceGraphic" in2="BackgroundImageFix" result="shape"/>
<feGaussianBlur stdDeviation="3" result="effect1_foregroundBlur_54_100"/>
</filter>
<filter id="filter3_f_54_100" x="41.423" y="26.5" width="46.2184" height="67" filterUnits="userSpaceOnUse" color-interpolation-filters="sRGB">
<feFlood flood-opacity="0" result="BackgroundImageFix"/>
<feBlend mode="normal" in="SourceGraphic" in2="BackgroundImageFix" result="shape"/>
<feGaussianBlur stdDeviation="3" result="effect1_foregroundBlur_54_100"/>
</filter>
<filter id="filter4_f_54_100" x="30.4157" y="57.6304" width="17.0836" height="18.7721" filterUnits="userSpaceOnUse" color-interpolation-filters="sRGB">
<feFlood flood-opacity="0" result="BackgroundImageFix"/>
<feBlend mode="normal" in="SourceGraphic" in2="BackgroundImageFix" result="shape"/>
<feGaussianBlur stdDeviation="1.5" result="effect1_foregroundBlur_54_100"/>
</filter>
<filter id="filter5_f_54_100" x="29.4157" y="56.6304" width="18.7989" height="19.6437" filterUnits="userSpaceOnUse" color-interpolation-filters="sRGB">
<feFlood flood-opacity="0" result="BackgroundImageFix"/>
<feBlend mode="normal" in="SourceGraphic" in2="BackgroundImageFix" result="shape"/>
<feGaussianBlur stdDeviation="2" result="effect1_foregroundBlur_54_100"/>
</filter>
<filter id="filter6_f_54_100" x="72.6087" y="47.4156" width="21.212" height="23.6242" filterUnits="userSpaceOnUse" color-interpolation-filters="sRGB">
<feFlood flood-opacity="0" result="BackgroundImageFix"/>
<feBlend mode="normal" in="SourceGraphic" in2="BackgroundImageFix" result="shape"/>
<feGaussianBlur stdDeviation="1.5" result="effect1_foregroundBlur_54_100"/>
</filter>
<filter id="filter7_f_54_100" x="71.9136" y="46.4156" width="22.9072" height="24.0658" filterUnits="userSpaceOnUse" color-interpolation-filters="sRGB">
<feFlood flood-opacity="0" result="BackgroundImageFix"/>
<feBlend mode="normal" in="SourceGraphic" in2="BackgroundImageFix" result="shape"/>
<feGaussianBlur stdDeviation="2" result="effect1_foregroundBlur_54_100"/>
</filter>
<filter id="filter8_f_54_100" x="29.4157" y="56.6304" width="18.7989" height="19.6437" filterUnits="userSpaceOnUse" color-interpolation-filters="sRGB">
<feFlood flood-opacity="0" result="BackgroundImageFix"/>
<feBlend mode="normal" in="SourceGraphic" in2="BackgroundImageFix" result="shape"/>
<feGaussianBlur stdDeviation="2" result="effect1_foregroundBlur_54_100"/>
</filter>
<filter id="filter9_f_54_100" x="71.9136" y="46.4156" width="22.9072" height="24.0658" filterUnits="userSpaceOnUse" color-interpolation-filters="sRGB">
<feFlood flood-opacity="0" result="BackgroundImageFix"/>
<feBlend mode="normal" in="SourceGraphic" in2="BackgroundImageFix" result="shape"/>
<feGaussianBlur stdDeviation="2" result="effect1_foregroundBlur_54_100"/>
</filter>
<radialGradient id="paint0_radial_54_100" cx="0" cy="0" r="1" gradientUnits="userSpaceOnUse" gradientTransform="translate(64 64) rotate(90) scale(56)">
<stop stop-color="#D9E5FF"/>
<stop offset="1" stop-color="#CCDCFF"/>
</radialGradient>
<radialGradient id="paint1_radial_54_100" cx="0" cy="0" r="1" gradientUnits="userSpaceOnUse" gradientTransform="translate(64 60) rotate(90) scale(54)">
<stop stop-color="white"/>
<stop offset="1" stop-color="#94B5FF"/>
</radialGradient>
<radialGradient id="paint2_radial_54_100" cx="0" cy="0" r="1" gradientUnits="userSpaceOnUse" gradientTransform="translate(64 60) rotate(90) scale(43)">
<stop stop-color="#669DEF"/>
<stop offset="1" stop-color="#588AD5"/>
</radialGradient>
<radialGradient id="paint3_radial_54_100" cx="0" cy="0" r="1" gradientUnits="userSpaceOnUse" gradientTransform="translate(64 60) rotate(90) scale(54)">
<stop stop-color="white"/>
<stop offset="1" stop-color="#729EFF"/>
</radialGradient>
<radialGradient id="paint4_radial_54_100" cx="0" cy="0" r="1" gradientUnits="userSpaceOnUse" gradientTransform="translate(64 60) rotate(90) scale(43)">
<stop stop-color="#3D85F0"/>
<stop offset="1" stop-color="#3B79D5"/>
</radialGradient>
<radialGradient id="paint5_radial_54_100" cx="0" cy="0" r="1" gradientUnits="userSpaceOnUse" gradientTransform="translate(64.5 61) rotate(90) scale(27 16.5)">
<stop stop-color="#82C5D0"/>
<stop offset="1" stop-color="#67A0C4"/>
</radialGradient>
<radialGradient id="paint6_radial_54_100" cx="0" cy="0" r="1" gradientUnits="userSpaceOnUse" gradientTransform="translate(64.5 61) rotate(90) scale(27 16.5)">
<stop stop-color="#82C5D0"/>
<stop offset="1" stop-color="#67A0C3"/>
</radialGradient>
<radialGradient id="paint7_radial_54_100" cx="0" cy="0" r="1" gradientUnits="userSpaceOnUse" gradientTransform="translate(64.5 60) rotate(90) scale(27 16.5)">
<stop stop-color="#D1F8FF"/>
<stop offset="1" stop-color="#9ED9FE"/>
</radialGradient>
<radialGradient id="paint8_radial_54_100" cx="0" cy="0" r="1" gradientUnits="userSpaceOnUse" gradientTransform="translate(64.5 60) rotate(90) scale(27 16.5)">
<stop stop-color="#D1F8FF"/>
<stop offset="1" stop-color="#9ED9FE"/>
</radialGradient>
<radialGradient id="paint9_radial_54_100" cx="0" cy="0" r="1" gradientUnits="userSpaceOnUse" gradientTransform="translate(64.5 60) rotate(90) scale(27 16.5)">
<stop stop-color="#D1F8FF"/>
<stop offset="1" stop-color="#9ED9FE"/>
</radialGradient>
<radialGradient id="paint10_radial_54_100" cx="0" cy="0" r="1" gradientUnits="userSpaceOnUse" gradientTransform="translate(64.5 60) rotate(90) scale(27 16.5)">
<stop stop-color="#D1F8FF"/>
<stop offset="1" stop-color="#9ED9FE"/>
</radialGradient>
<radialGradient id="paint11_radial_54_100" cx="0" cy="0" r="1" gradientUnits="userSpaceOnUse" gradientTransform="translate(64.5 60) rotate(90) scale(27 16.5)">
<stop stop-color="#D1F8FF"/>
<stop offset="1" stop-color="#9ED9FE"/>
</radialGradient>
<radialGradient id="paint12_radial_54_100" cx="0" cy="0" r="1" gradientUnits="userSpaceOnUse" gradientTransform="translate(64.5 60) rotate(90) scale(27 16.5)">
<stop stop-color="#D1F8FF"/>
<stop offset="1" stop-color="#9ED9FE"/>
</radialGradient>
<clipPath id="clip0_54_100">
<rect width="128" height="128" fill="white"/>
</clipPath>
</defs>
</svg>
