<svg width="128" height="128" viewBox="0 0 128 128" fill="none" xmlns="http://www.w3.org/2000/svg">
<g clip-path="url(#clip0_39_34)">
<path d="M98.5 113L109.5 102L32.6757 28.4552C37.6584 13.8275 7.68664 40.8887 24.5 36.6346L98.5 113Z" fill="#75B8E6"/>
<path d="M96.8889 66.435L109.481 53.8361L101.926 46.2768L104.444 43.757L86.8149 26.1186L84.2963 28.6384L56.5927 11L51.5557 16.0395L71.7038 41.2373L69.1853 43.757L72.9258 47.4995L15 105.454L25.0741 115.533L82.9999 57.5786L86.8149 61.3955L89.3334 58.8757L96.8889 66.435Z" fill="#1C9BF0"/>
<g filter="url(#filter0_f_39_34)">
<path d="M98.5 113L109.5 102L32.6757 28.4552C37.6584 13.8275 7.68664 40.8887 24.5 36.6346L98.5 113Z" fill="#75B8E6"/>
<path d="M96.8889 66.435L109.481 53.8361L101.926 46.2768L104.444 43.757L86.8149 26.1186L84.2963 28.6384L56.5927 11L51.5557 16.0395L71.7038 41.2373L69.1853 43.757L72.9258 47.4995L15 105.454L25.0741 115.533L82.9999 57.5786L86.8149 61.3955L89.3334 58.8757L96.8889 66.435Z" fill="#1C9BF0"/>
</g>
</g>
<defs>
<filter id="filter0_f_39_34" x="-1" y="-5" width="126.5" height="136.533" filterUnits="userSpaceOnUse" color-interpolation-filters="sRGB">
<feFlood flood-opacity="0" result="BackgroundImageFix"/>
<feBlend mode="normal" in="SourceGraphic" in2="BackgroundImageFix" result="shape"/>
<feGaussianBlur stdDeviation="8" result="effect1_foregroundBlur_39_34"/>
</filter>
<clipPath id="clip0_39_34">
<rect width="128" height="128" fill="white"/>
</clipPath>
</defs>
</svg>
