<svg width="128" height="128" viewBox="0 0 128 128" fill="none" xmlns="http://www.w3.org/2000/svg">
<g clip-path="url(#clip0_534_182)">
<g filter="url(#filter0_f_534_182)">
<path fill-rule="evenodd" clip-rule="evenodd" d="M30.7143 18H66.2857L90 110H66.2857L60.3571 87H36.6429L30.7143 110H7L30.7143 18ZM42.5714 64L48.5 41L54.4286 64H42.5714Z" fill="url(#paint0_linear_534_182)"/>
</g>
<g filter="url(#filter1_f_534_182)">
<path d="M83 69.125V59.875H96.875V46H106.125V59.875H120V69.125H106.125V83H96.875V69.125H83Z" fill="url(#paint1_linear_534_182)"/>
</g>
<path fill-rule="evenodd" clip-rule="evenodd" d="M30.7143 18H66.2857L90 110H66.2857L60.3571 87H36.6429L30.7143 110H7L30.7143 18ZM42.5714 64L48.5 41L54.4286 64H42.5714Z" fill="url(#paint2_linear_534_182)"/>
<path d="M83 69.125V59.875H96.875V46H106.125V59.875H120V69.125H106.125V83H96.875V69.125H83Z" fill="url(#paint3_linear_534_182)"/>
</g>
<defs>
<filter id="filter0_f_534_182" x="-1" y="10" width="99" height="108" filterUnits="userSpaceOnUse" color-interpolation-filters="sRGB">
<feFlood flood-opacity="0" result="BackgroundImageFix"/>
<feBlend mode="normal" in="SourceGraphic" in2="BackgroundImageFix" result="shape"/>
<feGaussianBlur stdDeviation="4" result="effect1_foregroundBlur_534_182"/>
</filter>
<filter id="filter1_f_534_182" x="75" y="38" width="53" height="53" filterUnits="userSpaceOnUse" color-interpolation-filters="sRGB">
<feFlood flood-opacity="0" result="BackgroundImageFix"/>
<feBlend mode="normal" in="SourceGraphic" in2="BackgroundImageFix" result="shape"/>
<feGaussianBlur stdDeviation="4" result="effect1_foregroundBlur_534_182"/>
</filter>
<linearGradient id="paint0_linear_534_182" x1="19.0826" y1="18" x2="78.072" y2="109.901" gradientUnits="userSpaceOnUse">
<stop stop-color="#59C943"/>
<stop offset="0.5" stop-color="#83C47D"/>
<stop offset="1" stop-color="#66BB50"/>
</linearGradient>
<linearGradient id="paint1_linear_534_182" x1="88.3862" y1="46" x2="111.018" y2="85.0821" gradientUnits="userSpaceOnUse">
<stop stop-color="#59C943"/>
<stop offset="0.5" stop-color="#83C47D"/>
<stop offset="1" stop-color="#66BB50"/>
</linearGradient>
<linearGradient id="paint2_linear_534_182" x1="90" y1="19.7437" x2="23.9729" y2="119.491" gradientUnits="userSpaceOnUse">
<stop stop-color="#5BDB5B"/>
<stop offset="0.505" stop-color="#C3E8AC"/>
<stop offset="1" stop-color="#50AC39"/>
</linearGradient>
<linearGradient id="paint3_linear_534_182" x1="120" y1="46.7013" x2="94.6035" y2="89.2282" gradientUnits="userSpaceOnUse">
<stop stop-color="#5BDB5B"/>
<stop offset="0.505" stop-color="#C3E8AC"/>
<stop offset="1" stop-color="#50AC39"/>
</linearGradient>
<clipPath id="clip0_534_182">
<rect width="128" height="128" fill="white"/>
</clipPath>
</defs>
</svg>
