<svg width="128" height="128" viewBox="0 0 128 128" fill="none" xmlns="http://www.w3.org/2000/svg">
<path opacity="0.5" d="M5 64L49.25 128L123 64L78.75 0L5 64Z" fill="url(#paint0_diamond_584_223)"/>
<g filter="url(#filter0_df_584_223)">
<path d="M98.5 116H18V93.5L80 35H29.5V12H110V35L48 93.5H98.5V116Z" fill="#B9E5FC"/>
<path d="M29.5 12L37 21L41.5 18.75L55 12H29.5Z" fill="#E6FBFF"/>
<path d="M78.5 12H55L62 16.2L65 18L71.75 15L75.125 13.5L80 15.235L85.5 16.8374L95.4418 15.1154L98 14.6723L100.306 15.7924L110 20.5V12H96H78.5Z" fill="#EBFCFF"/>
<path d="M80 35L69 45.4L60 53.8882L48.5 64.7343L38 74.6373L29.5 82.6539L18 93.5L31.2502 86.5L33 81.9117L34 81.6996L45.2291 74.7977L44.5 73.4607L59.5071 61.8465L57.9534 60.5L62 58.6875L68 56L66 52.2224L67.5 51.8059L72.5 44.3898L73.6707 44.0519L83 33.8836L80 35Z" fill="#E8F7FF"/>
<path d="M74.5 93.5L71.7871 94.8565L80 97.9791L84 99.5L87.5 97.0294L91 94.5588L92.5 93.5H74.5Z" fill="#E6F1FF"/>
<path d="M98.5 93.5H92.5L91 94.5588L92.5969 100.5L94.3625 107.069L98.5 105V93.5Z" fill="#E7FDFF"/>
<path fill-rule="evenodd" clip-rule="evenodd" d="M48.0819 93.5H59.5H74.5L71.7871 94.8565L70 95.75L68.4805 96.5097L53.9933 96.9685L52.3614 96.5097L45.2291 94.5045L48.0819 93.5Z" fill="#F4FBFF"/>
<path d="M55 12L41.5 18.75L43.9846 23.5L62 16.2L55 12Z" fill="#E2F4FF"/>
<path d="M89 116H98.5V105L94.3625 107.069L91 108.5L87.7584 115.567L89 116Z" fill="#9AE1FF"/>
<path d="M24.3749 108.615L27 116H89L87.7584 115.567L80.943 113.189L74.1873 110.833L67.5 108.5L65 110.022L56 115.5L45.5 112.125L42 111L41.5 111.167L37 112.5L24.3749 108.615Z" fill="#ACD8FD"/>
<path d="M18 116H27L24.3749 108.615L23.6229 106.5L18 100.5V116Z" fill="#AEE9FF"/>
<path d="M27.2459 97L23.6229 106.5L24.3749 108.615L37 112.5L41.5 111.167L34.3729 104.083L27.2459 97Z" fill="#CAE7FF"/>
<path d="M18 93.5V100.5L23.6229 106.5L27.2459 97L28.5807 93.5L31.2502 86.5L18 93.5Z" fill="#C4EFFF"/>
<path d="M27.2459 97L34.3729 104.083L37.2559 102.878L37.4462 97.2451L37.869 84.7293L28.5807 93.5L27.2459 97Z" fill="#D6DEFF"/>
<path d="M28.5807 93.5L37.869 84.7293L43.625 79.6585L38 80.8513L34 81.6996L33 81.9117L31.2502 86.5L28.5807 93.5Z" fill="#D9E6FF"/>
<path d="M37.869 84.7293L37.4462 97.2451L51.6558 80.5L49.25 78.4656L43.625 79.6585L37.869 84.7293Z" fill="#EBE7FF"/>
<path d="M48.0819 93.5L49.1334 92.5L50.6122 88.3453L53 81.6367L51.6558 80.5L37.4462 97.2451L45.2291 94.5045L48.0819 93.5Z" fill="#DCECFF"/>
<path d="M37.4462 97.2451L37.2559 102.878L52.3614 96.5097L45.2291 94.5045L37.4462 97.2451Z" fill="#E6F0FF"/>
<path d="M41.5 111.167L42 111L51.809 101.191L55.5842 97.4158L53.9933 96.9685L52.3614 96.5097L37.2559 102.878L34.3729 104.083L41.5 111.167Z" fill="#E3F6FF"/>
<path d="M42 111L45.5 112.125L62.5 110.291L51.809 101.191L42 111Z" fill="#D2F0FF"/>
<path d="M65 110.022L67.5 108.5L64.5 104.25L62.3595 101.218L61.5 100L59.5 99.1264L55.5842 97.4158L51.809 101.191L62.5 110.291L65 110.022Z" fill="#D1E7FF"/>
<path d="M45.5 112.125L56 115.5L65 110.022L62.5 110.291L45.5 112.125Z" fill="#B6DEFB"/>
<path d="M67.5 108.5L74.1873 110.833L72 107L81.5 105.898L62.3595 101.218L64.5 104.25L67.5 108.5Z" fill="#DDE2FF"/>
<path d="M74.1873 110.833L80.943 113.189L84.5 104L81.5 105.898L72 107L74.1873 110.833Z" fill="#E0E7FF"/>
<path d="M61.5 100L62.3595 101.218L81.5 105.898L73.3493 98.7056L61.5 100Z" fill="#D8ECFF"/>
<path d="M55.5842 97.4158L59.5 99.1264L61.5 100L68.4805 96.5097L53.9933 96.9685L55.5842 97.4158Z" fill="#DFE9FF"/>
<path d="M71.7871 94.8565L70 95.75L68.4805 96.5097L61.5 100L73.3493 98.7056L80 97.9791L71.7871 94.8565Z" fill="#ECF4FF"/>
<path d="M87.5 97.0294L84 99.5L80 97.9791L73.3493 98.7056L81.5 105.898L84.5 104L87.5 97.0294Z" fill="#E7F1FF"/>
<path d="M92.5969 100.5L91 94.5588L87.5 97.0294L84.5 104L80.943 113.189L92.5969 100.5Z" fill="#DBE1FF"/>
<path d="M87.7584 115.567L91 108.5L94.3625 107.069L92.5969 100.5L80.943 113.189L87.7584 115.567Z" fill="#DAE9FF"/>
<path d="M49.25 78.4656L45.5 75.2945L45.2291 74.7977L34 81.6996L38 80.8513L43.625 79.6585L49.25 78.4656Z" fill="#DFEDFF"/>
<path d="M60 76.5651L45.5 75.2945L49.25 78.4656L51.6558 80.5L53 81.6367L59.5071 78.4656L60 76.5651Z" fill="#EDE8FF"/>
<path d="M93 51L110 35L106 33.3064L93.9028 46.7282L93.5 47.5L80 56.8997L71.2695 66.5L69.5 70L60.5 74.6373L60 76.5651L59.5071 78.4656L53 81.6367L50.6122 88.3453L49.1334 92.5L57 85.0192L58.0718 84L69.5 73.1322L77 66L93 51Z" fill="#C9E0FF"/>
<path d="M69.5 70L64.5 66L59.5071 61.8465L44.5 73.4607L53 71.9221L60.5 74.6373L69.5 70Z" fill="#E6E8FF"/>
<path d="M60.5 74.6373L53 71.9221L44.5 73.4607L45.2291 74.7977L45.5 75.2945L60 76.5651L60.5 74.6373Z" fill="#DFDEFF"/>
<path d="M68 56L62 58.6875L57.9534 60.5L59.5071 61.8465L64.5 66L69.5 70L68 56Z" fill="#E4EDFF"/>
<path d="M66 52.2224L68 56L69.5 70L71.2695 66.5L71.9365 64L73.6707 57.5L75.8051 49.5L67.5 51.8059L66 52.2224Z" fill="#DDE8FF"/>
<path d="M91.7831 43L91.1746 39L84.3663 40.965L77.558 42.93L75.8051 49.5L73.6707 57.5L71.9365 64L71.2695 66.5L80 56.8997L89.7164 46.2153L91.7831 43Z" fill="#D6DFFF"/>
<path d="M91.7831 43L89.7164 46.2153L80 56.8997L93.5 47.5L91.7831 43Z" fill="#E7EDFF"/>
<path d="M75.8051 49.5L77.558 42.93L73.6707 44.0519L72.5 44.3898L67.5 51.8059L75.8051 49.5Z" fill="#E3EEFF"/>
<path d="M91.1746 39L90 31.2786L83 33.8836L73.6707 44.0519L77.558 42.93L84.3663 40.965L91.1746 39Z" fill="#E9EDFF"/>
<path d="M97.5 29.7074L96 29.0458L90 31.2786L91.1746 39L91.7831 43L93.5 47.5L93.9028 46.7282L97.5 29.7074Z" fill="#D8E4FF"/>
<path d="M106 33.3064L97.5 29.7074L93.9028 46.7282L106 33.3064Z" fill="#E3EEFF"/>
<path d="M110 20.5L100.306 15.7924L98 14.6723L95.4418 15.1154L98.2859 19L110 35V20.5Z" fill="#EAF2FF"/>
<path d="M98.2859 19L95 19.6053L88 21.0177L81 22.43L85.5 24.4148L90 26.3995L96 29.0458L97.5 29.7074L106 33.3064L110 35L98.2859 19Z" fill="#DFF2FF"/>
<path d="M95 19.6053L98.2859 19L95.4418 15.1154L85.5 16.8374L95 19.6053Z" fill="#EAEDFF"/>
<path d="M69.5 17.358L81 22.43L88 21.0177L95 19.6053L85.5 16.8374L80 15.235L69.5 17.358Z" fill="#F0F4FF"/>
<path d="M71.75 15L69.5 17.358L80 15.235L75.125 13.5L71.75 15Z" fill="#E7F6FF"/>
<path d="M69.5 17.358L62.6849 24.5L60.3148 29.2706L81 22.43L69.5 17.358Z" fill="#E1EFFF"/>
<path d="M65 18L63.6263 19.75L62.6849 24.5L69.5 17.358L71.75 15L65 18Z" fill="#D3E5FF"/>
<path d="M65 18L62 16.2L43.9846 23.5L44.2356 23.6407L55.5803 30L59 31.9169L60.3148 29.2706L62.6849 24.5L63.6263 19.75L65 18Z" fill="#CEE7FF"/>
<path d="M41.5 18.75L37 21L34 26.6L59 31.9169L55.5803 30L44.2356 23.6407L43.9846 23.5L41.5 18.75Z" fill="#C1DCFF"/>
<path d="M37 21L29.5 12V35L34 26.6L37 21Z" fill="#E0EEFF"/>
<path d="M85.5 24.4148L81 22.43L60.3148 29.2706L59 31.9169L86.5 28.7885L90 26.3995L85.5 24.4148Z" fill="#DEF5FF"/>
<path d="M90 31.2786L96 29.0458L90 26.3995L86.5 28.7885L78 32.5L80 35L83 33.8836L90 31.2786Z" fill="#E6EBFF"/>
<path fill-rule="evenodd" clip-rule="evenodd" d="M62.5084 33.8836L78 32.5L86.5 28.7885L59 31.9169L60.3148 32.654L62.5084 33.8836Z" fill="#D8ECFF"/>
<path d="M64.5 35H80L78 32.5L62.5084 33.8836L64.5 35Z" fill="#D3DBFF"/>
<path fill-rule="evenodd" clip-rule="evenodd" d="M29.5 35L60.3148 32.654L59 31.9169L34 26.6L29.5 35Z" fill="#D7E5FF"/>
<path d="M29.5 35H50H64.5L62.5084 33.8836L60.3148 32.654L29.5 35Z" fill="#CDD1FF"/>
</g>
<g filter="url(#filter1_df_584_223)">
<path d="M98.5 116H18V93.5L80 35H29.5V12H110V35L48 93.5H98.5V116Z" fill="#B9E5FC"/>
<path d="M29.5 12L37 21L41.5 18.75L55 12H29.5Z" fill="#E6FBFF"/>
<path d="M78.5 12H55L62 16.2L65 18L71.75 15L75.125 13.5L80 15.235L85.5 16.8374L95.4418 15.1154L98 14.6723L100.306 15.7924L110 20.5V12H96H78.5Z" fill="#EBFCFF"/>
<path d="M80 35L69 45.4L60 53.8882L48.5 64.7343L38 74.6373L29.5 82.6539L18 93.5L31.2502 86.5L33 81.9117L34 81.6996L45.2291 74.7977L44.5 73.4607L59.5071 61.8465L57.9534 60.5L62 58.6875L68 56L66 52.2224L67.5 51.8059L72.5 44.3898L73.6707 44.0519L83 33.8836L80 35Z" fill="#E8F7FF"/>
<path d="M74.5 93.5L71.7871 94.8565L80 97.9791L84 99.5L87.5 97.0294L91 94.5588L92.5 93.5H74.5Z" fill="#E6F1FF"/>
<path d="M98.5 93.5H92.5L91 94.5588L92.5969 100.5L94.3625 107.069L98.5 105V93.5Z" fill="#E7FDFF"/>
<path fill-rule="evenodd" clip-rule="evenodd" d="M48.0819 93.5H59.5H74.5L71.7871 94.8565L70 95.75L68.4805 96.5097L53.9933 96.9685L52.3614 96.5097L45.2291 94.5045L48.0819 93.5Z" fill="#F4FBFF"/>
<path d="M55 12L41.5 18.75L43.9846 23.5L62 16.2L55 12Z" fill="#E2F4FF"/>
<path d="M89 116H98.5V105L94.3625 107.069L91 108.5L87.7584 115.567L89 116Z" fill="#9AE1FF"/>
<path d="M24.3749 108.615L27 116H89L87.7584 115.567L80.943 113.189L74.1873 110.833L67.5 108.5L65 110.022L56 115.5L45.5 112.125L42 111L41.5 111.167L37 112.5L24.3749 108.615Z" fill="#ACD8FD"/>
<path d="M18 116H27L24.3749 108.615L23.6229 106.5L18 100.5V116Z" fill="#AEE9FF"/>
<path d="M27.2459 97L23.6229 106.5L24.3749 108.615L37 112.5L41.5 111.167L34.3729 104.083L27.2459 97Z" fill="#CAE7FF"/>
<path d="M18 93.5V100.5L23.6229 106.5L27.2459 97L28.5807 93.5L31.2502 86.5L18 93.5Z" fill="#C4EFFF"/>
<path d="M27.2459 97L34.3729 104.083L37.2559 102.878L37.4462 97.2451L37.869 84.7293L28.5807 93.5L27.2459 97Z" fill="#D6DEFF"/>
<path d="M28.5807 93.5L37.869 84.7293L43.625 79.6585L38 80.8513L34 81.6996L33 81.9117L31.2502 86.5L28.5807 93.5Z" fill="#D9E6FF"/>
<path d="M37.869 84.7293L37.4462 97.2451L51.6558 80.5L49.25 78.4656L43.625 79.6585L37.869 84.7293Z" fill="#EBE7FF"/>
<path d="M48.0819 93.5L49.1334 92.5L50.6122 88.3453L53 81.6367L51.6558 80.5L37.4462 97.2451L45.2291 94.5045L48.0819 93.5Z" fill="#DCECFF"/>
<path d="M37.4462 97.2451L37.2559 102.878L52.3614 96.5097L45.2291 94.5045L37.4462 97.2451Z" fill="#E6F0FF"/>
<path d="M41.5 111.167L42 111L51.809 101.191L55.5842 97.4158L53.9933 96.9685L52.3614 96.5097L37.2559 102.878L34.3729 104.083L41.5 111.167Z" fill="#E3F6FF"/>
<path d="M42 111L45.5 112.125L62.5 110.291L51.809 101.191L42 111Z" fill="#D2F0FF"/>
<path d="M65 110.022L67.5 108.5L64.5 104.25L62.3595 101.218L61.5 100L59.5 99.1264L55.5842 97.4158L51.809 101.191L62.5 110.291L65 110.022Z" fill="#D1E7FF"/>
<path d="M45.5 112.125L56 115.5L65 110.022L62.5 110.291L45.5 112.125Z" fill="#B6DEFB"/>
<path d="M67.5 108.5L74.1873 110.833L72 107L81.5 105.898L62.3595 101.218L64.5 104.25L67.5 108.5Z" fill="#DDE2FF"/>
<path d="M74.1873 110.833L80.943 113.189L84.5 104L81.5 105.898L72 107L74.1873 110.833Z" fill="#E0E7FF"/>
<path d="M61.5 100L62.3595 101.218L81.5 105.898L73.3493 98.7056L61.5 100Z" fill="#D8ECFF"/>
<path d="M55.5842 97.4158L59.5 99.1264L61.5 100L68.4805 96.5097L53.9933 96.9685L55.5842 97.4158Z" fill="#DFE9FF"/>
<path d="M71.7871 94.8565L70 95.75L68.4805 96.5097L61.5 100L73.3493 98.7056L80 97.9791L71.7871 94.8565Z" fill="#ECF4FF"/>
<path d="M87.5 97.0294L84 99.5L80 97.9791L73.3493 98.7056L81.5 105.898L84.5 104L87.5 97.0294Z" fill="#E7F1FF"/>
<path d="M92.5969 100.5L91 94.5588L87.5 97.0294L84.5 104L80.943 113.189L92.5969 100.5Z" fill="#DBE1FF"/>
<path d="M87.7584 115.567L91 108.5L94.3625 107.069L92.5969 100.5L80.943 113.189L87.7584 115.567Z" fill="#DAE9FF"/>
<path d="M49.25 78.4656L45.5 75.2945L45.2291 74.7977L34 81.6996L38 80.8513L43.625 79.6585L49.25 78.4656Z" fill="#DFEDFF"/>
<path d="M60 76.5651L45.5 75.2945L49.25 78.4656L51.6558 80.5L53 81.6367L59.5071 78.4656L60 76.5651Z" fill="#EDE8FF"/>
<path d="M93 51L110 35L106 33.3064L93.9028 46.7282L93.5 47.5L80 56.8997L71.2695 66.5L69.5 70L60.5 74.6373L60 76.5651L59.5071 78.4656L53 81.6367L50.6122 88.3453L49.1334 92.5L57 85.0192L58.0718 84L69.5 73.1322L77 66L93 51Z" fill="#C9E0FF"/>
<path d="M69.5 70L64.5 66L59.5071 61.8465L44.5 73.4607L53 71.9221L60.5 74.6373L69.5 70Z" fill="#E6E8FF"/>
<path d="M60.5 74.6373L53 71.9221L44.5 73.4607L45.2291 74.7977L45.5 75.2945L60 76.5651L60.5 74.6373Z" fill="#DFDEFF"/>
<path d="M68 56L62 58.6875L57.9534 60.5L59.5071 61.8465L64.5 66L69.5 70L68 56Z" fill="#E4EDFF"/>
<path d="M66 52.2224L68 56L69.5 70L71.2695 66.5L71.9365 64L73.6707 57.5L75.8051 49.5L67.5 51.8059L66 52.2224Z" fill="#DDE8FF"/>
<path d="M91.7831 43L91.1746 39L84.3663 40.965L77.558 42.93L75.8051 49.5L73.6707 57.5L71.9365 64L71.2695 66.5L80 56.8997L89.7164 46.2153L91.7831 43Z" fill="#D6DFFF"/>
<path d="M91.7831 43L89.7164 46.2153L80 56.8997L93.5 47.5L91.7831 43Z" fill="#E7EDFF"/>
<path d="M75.8051 49.5L77.558 42.93L73.6707 44.0519L72.5 44.3898L67.5 51.8059L75.8051 49.5Z" fill="#E3EEFF"/>
<path d="M91.1746 39L90 31.2786L83 33.8836L73.6707 44.0519L77.558 42.93L84.3663 40.965L91.1746 39Z" fill="#E9EDFF"/>
<path d="M97.5 29.7074L96 29.0458L90 31.2786L91.1746 39L91.7831 43L93.5 47.5L93.9028 46.7282L97.5 29.7074Z" fill="#D8E4FF"/>
<path d="M106 33.3064L97.5 29.7074L93.9028 46.7282L106 33.3064Z" fill="#E3EEFF"/>
<path d="M110 20.5L100.306 15.7924L98 14.6723L95.4418 15.1154L98.2859 19L110 35V20.5Z" fill="#EAF2FF"/>
<path d="M98.2859 19L95 19.6053L88 21.0177L81 22.43L85.5 24.4148L90 26.3995L96 29.0458L97.5 29.7074L106 33.3064L110 35L98.2859 19Z" fill="#DFF2FF"/>
<path d="M95 19.6053L98.2859 19L95.4418 15.1154L85.5 16.8374L95 19.6053Z" fill="#EAEDFF"/>
<path d="M69.5 17.358L81 22.43L88 21.0177L95 19.6053L85.5 16.8374L80 15.235L69.5 17.358Z" fill="#F0F4FF"/>
<path d="M71.75 15L69.5 17.358L80 15.235L75.125 13.5L71.75 15Z" fill="#E7F6FF"/>
<path d="M69.5 17.358L62.6849 24.5L60.3148 29.2706L81 22.43L69.5 17.358Z" fill="#E1EFFF"/>
<path d="M65 18L63.6263 19.75L62.6849 24.5L69.5 17.358L71.75 15L65 18Z" fill="#D3E5FF"/>
<path d="M65 18L62 16.2L43.9846 23.5L44.2356 23.6407L55.5803 30L59 31.9169L60.3148 29.2706L62.6849 24.5L63.6263 19.75L65 18Z" fill="#CEE7FF"/>
<path d="M41.5 18.75L37 21L34 26.6L59 31.9169L55.5803 30L44.2356 23.6407L43.9846 23.5L41.5 18.75Z" fill="#C1DCFF"/>
<path d="M37 21L29.5 12V35L34 26.6L37 21Z" fill="#E0EEFF"/>
<path d="M85.5 24.4148L81 22.43L60.3148 29.2706L59 31.9169L86.5 28.7885L90 26.3995L85.5 24.4148Z" fill="#DEF5FF"/>
<path d="M90 31.2786L96 29.0458L90 26.3995L86.5 28.7885L78 32.5L80 35L83 33.8836L90 31.2786Z" fill="#E6EBFF"/>
<path fill-rule="evenodd" clip-rule="evenodd" d="M62.5084 33.8836L78 32.5L86.5 28.7885L59 31.9169L60.3148 32.654L62.5084 33.8836Z" fill="#D8ECFF"/>
<path d="M64.5 35H80L78 32.5L62.5084 33.8836L64.5 35Z" fill="#D3DBFF"/>
<path fill-rule="evenodd" clip-rule="evenodd" d="M29.5 35L60.3148 32.654L59 31.9169L34 26.6L29.5 35Z" fill="#D7E5FF"/>
<path d="M29.5 35H50H64.5L62.5084 33.8836L60.3148 32.654L29.5 35Z" fill="#CDD1FF"/>
</g>
<g filter="url(#filter2_d_584_223)">
<path d="M98.5 116H18V93.5L80 35H29.5V12H110V35L48 93.5H98.5V116Z" fill="#B9E5FC"/>
<path d="M29.5 12L37 21L41.5 18.75L55 12H29.5Z" fill="#E6FBFF"/>
<path d="M78.5 12H55L62 16.2L65 18L71.75 15L75.125 13.5L80 15.235L85.5 16.8374L95.4418 15.1154L98 14.6723L100.306 15.7924L110 20.5V12H96H78.5Z" fill="#EBFCFF"/>
<path d="M80 35L69 45.4L60 53.8882L48.5 64.7343L38 74.6373L29.5 82.6539L18 93.5L31.2502 86.5L33 81.9117L34 81.6996L45.2291 74.7977L44.5 73.4607L59.5071 61.8465L57.9534 60.5L62 58.6875L68 56L66 52.2224L67.5 51.8059L72.5 44.3898L73.6707 44.0519L83 33.8836L80 35Z" fill="#E8F7FF"/>
<path d="M74.5 93.5L71.7871 94.8565L80 97.9791L84 99.5L87.5 97.0294L91 94.5588L92.5 93.5H74.5Z" fill="#E6F1FF"/>
<path d="M98.5 93.5H92.5L91 94.5588L92.5969 100.5L94.3625 107.069L98.5 105V93.5Z" fill="#E7FDFF"/>
<path fill-rule="evenodd" clip-rule="evenodd" d="M48.0819 93.5H59.5H74.5L71.7871 94.8565L70 95.75L68.4805 96.5097L53.9933 96.9685L52.3614 96.5097L45.2291 94.5045L48.0819 93.5Z" fill="#F4FBFF"/>
<path d="M55 12L41.5 18.75L43.9846 23.5L62 16.2L55 12Z" fill="#E2F4FF"/>
<path d="M89 116H98.5V105L94.3625 107.069L91 108.5L87.7584 115.567L89 116Z" fill="#9AE1FF"/>
<path d="M24.3749 108.615L27 116H89L87.7584 115.567L80.943 113.189L74.1873 110.833L67.5 108.5L65 110.022L56 115.5L45.5 112.125L42 111L41.5 111.167L37 112.5L24.3749 108.615Z" fill="#ACD8FD"/>
<path d="M18 116H27L24.3749 108.615L23.6229 106.5L18 100.5V116Z" fill="#AEE9FF"/>
<path d="M27.2459 97L23.6229 106.5L24.3749 108.615L37 112.5L41.5 111.167L34.3729 104.083L27.2459 97Z" fill="#CAE7FF"/>
<path d="M18 93.5V100.5L23.6229 106.5L27.2459 97L28.5807 93.5L31.2502 86.5L18 93.5Z" fill="#C4EFFF"/>
<path d="M27.2459 97L34.3729 104.083L37.2559 102.878L37.4462 97.2451L37.869 84.7293L28.5807 93.5L27.2459 97Z" fill="#D6DEFF"/>
<path d="M28.5807 93.5L37.869 84.7293L43.625 79.6585L38 80.8513L34 81.6996L33 81.9117L31.2502 86.5L28.5807 93.5Z" fill="#D9E6FF"/>
<path d="M37.869 84.7293L37.4462 97.2451L51.6558 80.5L49.25 78.4656L43.625 79.6585L37.869 84.7293Z" fill="#EBE7FF"/>
<path d="M48.0819 93.5L49.1334 92.5L50.6122 88.3453L53 81.6367L51.6558 80.5L37.4462 97.2451L45.2291 94.5045L48.0819 93.5Z" fill="#DCECFF"/>
<path d="M37.4462 97.2451L37.2559 102.878L52.3614 96.5097L45.2291 94.5045L37.4462 97.2451Z" fill="#E6F0FF"/>
<path d="M41.5 111.167L42 111L51.809 101.191L55.5842 97.4158L53.9933 96.9685L52.3614 96.5097L37.2559 102.878L34.3729 104.083L41.5 111.167Z" fill="#E3F6FF"/>
<path d="M42 111L45.5 112.125L62.5 110.291L51.809 101.191L42 111Z" fill="#D2F0FF"/>
<path d="M65 110.022L67.5 108.5L64.5 104.25L62.3595 101.218L61.5 100L59.5 99.1264L55.5842 97.4158L51.809 101.191L62.5 110.291L65 110.022Z" fill="#D1E7FF"/>
<path d="M45.5 112.125L56 115.5L65 110.022L62.5 110.291L45.5 112.125Z" fill="#B6DEFB"/>
<path d="M67.5 108.5L74.1873 110.833L72 107L81.5 105.898L62.3595 101.218L64.5 104.25L67.5 108.5Z" fill="#DDE2FF"/>
<path d="M74.1873 110.833L80.943 113.189L84.5 104L81.5 105.898L72 107L74.1873 110.833Z" fill="#E0E7FF"/>
<path d="M61.5 100L62.3595 101.218L81.5 105.898L73.3493 98.7056L61.5 100Z" fill="#D8ECFF"/>
<path d="M55.5842 97.4158L59.5 99.1264L61.5 100L68.4805 96.5097L53.9933 96.9685L55.5842 97.4158Z" fill="#DFE9FF"/>
<path d="M71.7871 94.8565L70 95.75L68.4805 96.5097L61.5 100L73.3493 98.7056L80 97.9791L71.7871 94.8565Z" fill="#ECF4FF"/>
<path d="M87.5 97.0294L84 99.5L80 97.9791L73.3493 98.7056L81.5 105.898L84.5 104L87.5 97.0294Z" fill="#E7F1FF"/>
<path d="M92.5969 100.5L91 94.5588L87.5 97.0294L84.5 104L80.943 113.189L92.5969 100.5Z" fill="#DBE1FF"/>
<path d="M87.7584 115.567L91 108.5L94.3625 107.069L92.5969 100.5L80.943 113.189L87.7584 115.567Z" fill="#DAE9FF"/>
<path d="M49.25 78.4656L45.5 75.2945L45.2291 74.7977L34 81.6996L38 80.8513L43.625 79.6585L49.25 78.4656Z" fill="#DFEDFF"/>
<path d="M60 76.5651L45.5 75.2945L49.25 78.4656L51.6558 80.5L53 81.6367L59.5071 78.4656L60 76.5651Z" fill="#EDE8FF"/>
<path d="M93 51L110 35L106 33.3064L93.9028 46.7282L93.5 47.5L80 56.8997L71.2695 66.5L69.5 70L60.5 74.6373L60 76.5651L59.5071 78.4656L53 81.6367L50.6122 88.3453L49.1334 92.5L57 85.0192L58.0718 84L69.5 73.1322L77 66L93 51Z" fill="#C9E0FF"/>
<path d="M69.5 70L64.5 66L59.5071 61.8465L44.5 73.4607L53 71.9221L60.5 74.6373L69.5 70Z" fill="#E6E8FF"/>
<path d="M60.5 74.6373L53 71.9221L44.5 73.4607L45.2291 74.7977L45.5 75.2945L60 76.5651L60.5 74.6373Z" fill="#DFDEFF"/>
<path d="M68 56L62 58.6875L57.9534 60.5L59.5071 61.8465L64.5 66L69.5 70L68 56Z" fill="#E4EDFF"/>
<path d="M66 52.2224L68 56L69.5 70L71.2695 66.5L71.9365 64L73.6707 57.5L75.8051 49.5L67.5 51.8059L66 52.2224Z" fill="#DDE8FF"/>
<path d="M91.7831 43L91.1746 39L84.3663 40.965L77.558 42.93L75.8051 49.5L73.6707 57.5L71.9365 64L71.2695 66.5L80 56.8997L89.7164 46.2153L91.7831 43Z" fill="#D6DFFF"/>
<path d="M91.7831 43L89.7164 46.2153L80 56.8997L93.5 47.5L91.7831 43Z" fill="#E7EDFF"/>
<path d="M75.8051 49.5L77.558 42.93L73.6707 44.0519L72.5 44.3898L67.5 51.8059L75.8051 49.5Z" fill="#E3EEFF"/>
<path d="M91.1746 39L90 31.2786L83 33.8836L73.6707 44.0519L77.558 42.93L84.3663 40.965L91.1746 39Z" fill="#E9EDFF"/>
<path d="M97.5 29.7074L96 29.0458L90 31.2786L91.1746 39L91.7831 43L93.5 47.5L93.9028 46.7282L97.5 29.7074Z" fill="#D8E4FF"/>
<path d="M106 33.3064L97.5 29.7074L93.9028 46.7282L106 33.3064Z" fill="#E3EEFF"/>
<path d="M110 20.5L100.306 15.7924L98 14.6723L95.4418 15.1154L98.2859 19L110 35V20.5Z" fill="#EAF2FF"/>
<path d="M98.2859 19L95 19.6053L88 21.0177L81 22.43L85.5 24.4148L90 26.3995L96 29.0458L97.5 29.7074L106 33.3064L110 35L98.2859 19Z" fill="#DFF2FF"/>
<path d="M95 19.6053L98.2859 19L95.4418 15.1154L85.5 16.8374L95 19.6053Z" fill="#EAEDFF"/>
<path d="M69.5 17.358L81 22.43L88 21.0177L95 19.6053L85.5 16.8374L80 15.235L69.5 17.358Z" fill="#F0F4FF"/>
<path d="M71.75 15L69.5 17.358L80 15.235L75.125 13.5L71.75 15Z" fill="#E7F6FF"/>
<path d="M69.5 17.358L62.6849 24.5L60.3148 29.2706L81 22.43L69.5 17.358Z" fill="#E1EFFF"/>
<path d="M65 18L63.6263 19.75L62.6849 24.5L69.5 17.358L71.75 15L65 18Z" fill="#D3E5FF"/>
<path d="M65 18L62 16.2L43.9846 23.5L44.2356 23.6407L55.5803 30L59 31.9169L60.3148 29.2706L62.6849 24.5L63.6263 19.75L65 18Z" fill="#CEE7FF"/>
<path d="M41.5 18.75L37 21L34 26.6L59 31.9169L55.5803 30L44.2356 23.6407L43.9846 23.5L41.5 18.75Z" fill="#C1DCFF"/>
<path d="M37 21L29.5 12V35L34 26.6L37 21Z" fill="#E0EEFF"/>
<path d="M85.5 24.4148L81 22.43L60.3148 29.2706L59 31.9169L86.5 28.7885L90 26.3995L85.5 24.4148Z" fill="#DEF5FF"/>
<path d="M90 31.2786L96 29.0458L90 26.3995L86.5 28.7885L78 32.5L80 35L83 33.8836L90 31.2786Z" fill="#E6EBFF"/>
<path fill-rule="evenodd" clip-rule="evenodd" d="M62.5084 33.8836L78 32.5L86.5 28.7885L59 31.9169L60.3148 32.654L62.5084 33.8836Z" fill="#D8ECFF"/>
<path d="M64.5 35H80L78 32.5L62.5084 33.8836L64.5 35Z" fill="#D3DBFF"/>
<path fill-rule="evenodd" clip-rule="evenodd" d="M29.5 35L60.3148 32.654L59 31.9169L34 26.6L29.5 35Z" fill="#D7E5FF"/>
<path d="M29.5 35H50H64.5L62.5084 33.8836L60.3148 32.654L29.5 35Z" fill="#CDD1FF"/>
</g>
<path opacity="0.1" d="M18 64L52.5 120L110 64L75.5 8L18 64Z" fill="url(#paint1_diamond_584_223)"/>
<path opacity="0.1" d="M18 64L52.5 120L110 64L75.5 8L18 64Z" fill="url(#paint2_diamond_584_223)"/>
<path opacity="0.1" d="M28 64L55 108L100 64L73 20L28 64Z" fill="url(#paint3_diamond_584_223)"/>
<path opacity="0.75" d="M24 64L54 108L104 64L74 20L24 64Z" fill="url(#paint4_diamond_584_223)"/>
<defs>
<filter id="filter0_df_584_223" x="6" y="0" width="116" height="128" filterUnits="userSpaceOnUse" color-interpolation-filters="sRGB">
<feFlood flood-opacity="0" result="BackgroundImageFix"/>
<feColorMatrix in="SourceAlpha" type="matrix" values="0 0 0 0 0 0 0 0 0 0 0 0 0 0 0 0 0 0 127 0" result="hardAlpha"/>
<feOffset/>
<feGaussianBlur stdDeviation="4"/>
<feComposite in2="hardAlpha" operator="out"/>
<feColorMatrix type="matrix" values="0 0 0 0 0 0 0 0 0 0 0 0 0 0 0 0 0 0 1 0"/>
<feBlend mode="normal" in2="BackgroundImageFix" result="effect1_dropShadow_584_223"/>
<feBlend mode="normal" in="SourceGraphic" in2="effect1_dropShadow_584_223" result="shape"/>
<feGaussianBlur stdDeviation="6" result="effect2_foregroundBlur_584_223"/>
</filter>
<filter id="filter1_df_584_223" x="10" y="4" width="108" height="120" filterUnits="userSpaceOnUse" color-interpolation-filters="sRGB">
<feFlood flood-opacity="0" result="BackgroundImageFix"/>
<feColorMatrix in="SourceAlpha" type="matrix" values="0 0 0 0 0 0 0 0 0 0 0 0 0 0 0 0 0 0 127 0" result="hardAlpha"/>
<feOffset/>
<feGaussianBlur stdDeviation="4"/>
<feComposite in2="hardAlpha" operator="out"/>
<feColorMatrix type="matrix" values="0 0 0 0 0 0 0 0 0 0.0113193 0 0 0 0 0.679167 0 0 0 0.5 0"/>
<feBlend mode="normal" in2="BackgroundImageFix" result="effect1_dropShadow_584_223"/>
<feBlend mode="normal" in="SourceGraphic" in2="effect1_dropShadow_584_223" result="shape"/>
<feGaussianBlur stdDeviation="4" result="effect2_foregroundBlur_584_223"/>
</filter>
<filter id="filter2_d_584_223" x="6" y="0" width="116" height="128" filterUnits="userSpaceOnUse" color-interpolation-filters="sRGB">
<feFlood flood-opacity="0" result="BackgroundImageFix"/>
<feColorMatrix in="SourceAlpha" type="matrix" values="0 0 0 0 0 0 0 0 0 0 0 0 0 0 0 0 0 0 127 0" result="hardAlpha"/>
<feOffset/>
<feGaussianBlur stdDeviation="6"/>
<feComposite in2="hardAlpha" operator="out"/>
<feColorMatrix type="matrix" values="0 0 0 0 0.733333 0 0 0 0 0.768889 0 0 0 0 1 0 0 0 1 0"/>
<feBlend mode="normal" in2="BackgroundImageFix" result="effect1_dropShadow_584_223"/>
<feBlend mode="normal" in="SourceGraphic" in2="effect1_dropShadow_584_223" result="shape"/>
</filter>
<radialGradient id="paint0_diamond_584_223" cx="0" cy="0" r="1" gradientUnits="userSpaceOnUse" gradientTransform="translate(64 64) rotate(102.7) scale(58.9107 52.7908)">
<stop stop-color="white"/>
<stop offset="1" stop-color="white" stop-opacity="0"/>
</radialGradient>
<radialGradient id="paint1_diamond_584_223" cx="0" cy="0" r="1" gradientUnits="userSpaceOnUse" gradientTransform="translate(64 64) rotate(101.354) scale(51.2895 41.3654)">
<stop stop-color="#8599FF"/>
<stop offset="1" stop-color="white" stop-opacity="0"/>
</radialGradient>
<radialGradient id="paint2_diamond_584_223" cx="0" cy="0" r="1" gradientUnits="userSpaceOnUse" gradientTransform="translate(64 64) rotate(101.354) scale(51.2895 41.3654)">
<stop stop-color="#00B2FF"/>
<stop offset="1" stop-color="white" stop-opacity="0"/>
</radialGradient>
<radialGradient id="paint3_diamond_584_223" cx="0" cy="0" r="1" gradientUnits="userSpaceOnUse" gradientTransform="translate(64 64) rotate(101.31) scale(40.2927 32.3779)">
<stop stop-color="#617BFF"/>
<stop offset="1" stop-color="white" stop-opacity="0"/>
</radialGradient>
<radialGradient id="paint4_diamond_584_223" cx="0" cy="0" r="1" gradientUnits="userSpaceOnUse" gradientTransform="translate(64 64) rotate(102.529) scale(40.4741 35.8142)">
<stop stop-color="white"/>
<stop offset="1" stop-color="white" stop-opacity="0"/>
</radialGradient>
</defs>
</svg>
