<svg width="128" height="128" viewBox="0 0 128 128" fill="none" xmlns="http://www.w3.org/2000/svg">
<g filter="url(#filter0_f_410_2)">
<path fill-rule="evenodd" clip-rule="evenodd" d="M14 115H80C94.6667 115 113 100.286 113 63.5C113 26.7143 94.6667 12 80 12H14V115ZM37.8333 91.0893V35.9107H74.5C85.5 35.9107 89.1667 52.4643 89.1667 63.5C89.1667 74.5357 85.5 91.0893 74.5 91.0893H37.8333Z" fill="url(#paint0_linear_410_2)"/>
</g>
<path fill-rule="evenodd" clip-rule="evenodd" d="M14 115H80C94.6667 115 113 100.286 113 63.5C113 26.7143 94.6667 12 80 12H14V115ZM37.8333 91.0893V35.9107H74.5C85.5 35.9107 89.1667 52.4643 89.1667 63.5C89.1667 74.5357 85.5 91.0893 74.5 91.0893H37.8333Z" fill="url(#paint1_linear_410_2)"/>
<defs>
<filter id="filter0_f_410_2" x="6" y="4" width="115" height="119" filterUnits="userSpaceOnUse" color-interpolation-filters="sRGB">
<feFlood flood-opacity="0" result="BackgroundImageFix"/>
<feBlend mode="normal" in="SourceGraphic" in2="BackgroundImageFix" result="shape"/>
<feGaussianBlur stdDeviation="4" result="effect1_foregroundBlur_410_2"/>
</filter>
<linearGradient id="paint0_linear_410_2" x1="14" y1="48.1037" x2="113.056" y2="78.7146" gradientUnits="userSpaceOnUse">
<stop stop-color="#AAA7FF"/>
<stop offset="0.505" stop-color="#DCD6FF"/>
<stop offset="1" stop-color="#7D7BB7"/>
</linearGradient>
<linearGradient id="paint1_linear_410_2" x1="14" y1="48.1037" x2="113.056" y2="78.7146" gradientUnits="userSpaceOnUse">
<stop stop-color="#817CFF"/>
<stop offset="0.505" stop-color="#B5A8FF"/>
<stop offset="1" stop-color="#5D5AAD"/>
</linearGradient>
</defs>
</svg>
