<svg width="128" height="128" viewBox="0 0 128 128" fill="none" xmlns="http://www.w3.org/2000/svg">
<g filter="url(#filter0_f_410_41)">
<path d="M55.0587 10H104L104 32.2917H55.0587C44 32.2917 44 45.6667 64 52.3542C111.395 68.202 115.294 117 70.1176 117H24L24 94.7083H70.6667C81.7778 94.7083 81.7778 79.1042 64 74.6458C14.4149 62.2108 13.6471 10 55.0587 10Z" fill="url(#paint0_linear_410_41)"/>
</g>
<path d="M55.0587 10H104L104 32.2917H55.0587C44 32.2917 44 45.6667 64 52.3542C111.395 68.202 115.294 117 70.1176 117H24L24 94.7083H70.6667C81.7778 94.7083 81.7778 79.1042 64 74.6458C14.4149 62.2108 13.6471 10 55.0587 10Z" fill="url(#paint1_linear_410_41)"/>
<defs>
<filter id="filter0_f_410_41" x="16" y="2" width="96" height="123" filterUnits="userSpaceOnUse" color-interpolation-filters="sRGB">
<feFlood flood-opacity="0" result="BackgroundImageFix"/>
<feBlend mode="normal" in="SourceGraphic" in2="BackgroundImageFix" result="shape"/>
<feGaussianBlur stdDeviation="4" result="effect1_foregroundBlur_410_41"/>
</filter>
<linearGradient id="paint0_linear_410_41" x1="104" y1="12.5296" x2="22.6549" y2="113.385" gradientUnits="userSpaceOnUse">
<stop stop-color="#FFF152"/>
<stop offset="0.505" stop-color="#FFF68D"/>
<stop offset="1" stop-color="#FDEF52"/>
</linearGradient>
<linearGradient id="paint1_linear_410_41" x1="104" y1="12.028" x2="22.6415" y2="113.887" gradientUnits="userSpaceOnUse">
<stop stop-color="#FFF152"/>
<stop offset="0.505" stop-color="#FFF68D"/>
<stop offset="1" stop-color="#FDEF52"/>
</linearGradient>
</defs>
</svg>
