<svg width="128" height="128" viewBox="0 0 128 128" fill="none" xmlns="http://www.w3.org/2000/svg">
<path d="M30.6078 37.9864L25.291 43.277V80.3107C25.291 105 41.2425 105 51.8768 105L63.7164 105V94.4189L51.8768 94.4188C44.7873 94.4188 35.9253 94.4188 35.9253 80.3107V43.2771L30.6078 37.9864Z" fill="#00FFA9"/>
<path d="M30.3553 23L7 46.2397L14.6567 53.8578L25.291 43.277L30.6078 37.9864L35.9253 43.2771L46.5593 53.8578L53.9635 46.49L30.3553 23Z" fill="#00FFA9"/>
<path d="M30.6078 37.9864L25.291 43.277V80.3107C25.291 105 41.2425 105 51.8768 105L63.7164 105V94.4189L51.8768 94.4188C44.7873 94.4188 35.9253 94.4188 35.9253 80.3107V43.2771L30.6078 37.9864Z" fill="#00FFA9"/>
<path d="M30.3553 23L7 46.2397L14.6567 53.8578L25.291 43.277L30.6078 37.9864L35.9253 43.2771L46.5593 53.8578L53.9635 46.49L30.3553 23Z" fill="#00FFA9"/>
<path d="M97.3922 90.0136L102.709 84.723V47.6893C102.709 23.0001 86.7575 23.0001 76.1232 23.0001L63.7163 23.0001V33.5812L76.1232 33.5812C83.2127 33.5812 92.0747 33.5812 92.0747 47.6893V84.7229L97.3922 90.0136Z" fill="#00FFA9"/>
<path d="M97.6447 105L121 81.7603L113.343 74.1422L102.709 84.723L97.3922 90.0136L92.0747 84.7229L81.4407 74.1422L74.0365 81.51L97.6447 105Z" fill="#00FFA9"/>
<path d="M97.3922 90.0136L102.709 84.723V47.6893C102.709 23.0001 86.7575 23.0001 76.1232 23.0001L63.7163 23.0001V33.5812L76.1232 33.5812C83.2127 33.5812 92.0747 33.5812 92.0747 47.6893V84.7229L97.3922 90.0136Z" fill="#00FFA9"/>
<path d="M97.6447 105L121 81.7603L113.343 74.1422L102.709 84.723L97.3922 90.0136L92.0747 84.7229L81.4407 74.1422L74.0365 81.51L97.6447 105Z" fill="#00FFA9"/>
<g filter="url(#filter0_f_1_4)">
<path d="M30.6078 37.9864L25.291 43.277V80.3107C25.291 105 41.2425 105 51.8768 105L63.7164 105V94.4189L51.8768 94.4188C44.7873 94.4188 35.9253 94.4188 35.9253 80.3107V43.2771L30.6078 37.9864Z" fill="#00FFA9"/>
<path d="M30.3553 23L7 46.2397L14.6567 53.8578L25.291 43.277L30.6078 37.9864L35.9253 43.2771L46.5593 53.8578L53.9635 46.49L30.3553 23Z" fill="#00FFA9"/>
<path d="M30.6078 37.9864L25.291 43.277V80.3107C25.291 105 41.2425 105 51.8768 105L63.7164 105V94.4189L51.8768 94.4188C44.7873 94.4188 35.9253 94.4188 35.9253 80.3107V43.2771L30.6078 37.9864Z" fill="#00FFA9"/>
<path d="M30.3553 23L7 46.2397L14.6567 53.8578L25.291 43.277L30.6078 37.9864L35.9253 43.2771L46.5593 53.8578L53.9635 46.49L30.3553 23Z" fill="#00FFA9"/>
<path d="M97.3922 90.0136L102.709 84.723V47.6893C102.709 23.0001 86.7575 23.0001 76.1232 23.0001L63.7163 23.0001V33.5812L76.1232 33.5812C83.2127 33.5812 92.0747 33.5812 92.0747 47.6893V84.7229L97.3922 90.0136Z" fill="#00FFA9"/>
<path d="M97.6447 105L121 81.7603L113.343 74.1422L102.709 84.723L97.3922 90.0136L92.0747 84.7229L81.4407 74.1422L74.0365 81.51L97.6447 105Z" fill="#00FFA9"/>
<path d="M97.3922 90.0136L102.709 84.723V47.6893C102.709 23.0001 86.7575 23.0001 76.1232 23.0001L63.7163 23.0001V33.5812L76.1232 33.5812C83.2127 33.5812 92.0747 33.5812 92.0747 47.6893V84.7229L97.3922 90.0136Z" fill="#00FFA9"/>
<path d="M97.6447 105L121 81.7603L113.343 74.1422L102.709 84.723L97.3922 90.0136L92.0747 84.7229L81.4407 74.1422L74.0365 81.51L97.6447 105Z" fill="#00FFA9"/>
</g>
<defs>
<filter id="filter0_f_1_4" x="2" y="18" width="124" height="92" filterUnits="userSpaceOnUse" color-interpolation-filters="sRGB">
<feFlood flood-opacity="0" result="BackgroundImageFix"/>
<feBlend mode="normal" in="SourceGraphic" in2="BackgroundImageFix" result="shape"/>
<feGaussianBlur stdDeviation="2.5" result="effect1_foregroundBlur_1_4"/>
</filter>
</defs>
</svg>
