<svg width="128" height="128" viewBox="0 0 128 128" fill="none" xmlns="http://www.w3.org/2000/svg">
<g clip-path="url(#clip0_763_2)">
<g filter="url(#filter0_f_763_2)">
<path d="M112 108L112 36C112 33.7909 110.209 32 108 32L53.3761 32C50.6967 32 48.7749 34.5829 49.5448 37.1494L72 112L108 112C110.209 112 112 110.209 112 108Z" fill="url(#paint0_linear_763_2)"/>
<path d="M72 112L80 96H56L72 112Z" fill="url(#paint1_linear_763_2)"/>
<g filter="url(#filter1_i_763_2)">
<path d="M97.1429 65.7586H100.571C99.166 69.9883 97.5613 73.0505 95.0276 75.6515C94.1422 76.5604 93.1434 77.413 92 78.2394C89.7699 79.8513 86.9897 81.3636 83.4286 83L80 79.5517C83.7318 78.28 86.6285 77.0811 88.9724 75.6515C90.0988 74.9645 91.0976 74.2243 92 73.3971C94.1059 71.4669 95.6874 69.0634 97.1429 65.7586Z" fill="#585858"/>
<path d="M92 78.2394C94.2301 79.8513 97.0103 81.3636 100.571 83L104 79.5517C100.268 78.28 97.3715 77.0811 95.0276 75.6515C94.1422 76.5604 93.1434 77.413 92 78.2394Z" fill="#585858"/>
<path d="M86.8571 65.7586H83.4286C84.834 69.9883 86.4387 73.0505 88.9724 75.6515C90.0988 74.9645 91.0976 74.2243 92 73.3971C89.8941 71.4669 88.3126 69.0634 86.8571 65.7586Z" fill="#585858"/>
<path d="M89.4286 58V61.4483H80V65.7586H83.4286H86.8571H97.1429H100.571H104V61.4483H94.5714V58H89.4286Z" fill="#585858"/>
</g>
<path d="M16 20V92C16 94.2091 17.7909 96 20 96H80L56 16H20C17.7909 16 16 17.7909 16 20Z" fill="url(#paint2_linear_763_2)"/>
<g filter="url(#filter2_i_763_2)">
<path fill-rule="evenodd" clip-rule="evenodd" d="M36 41H48L56 72H48L46 64.25H38L36 72H28L36 41ZM40 56.5L42 48.75L44 56.5H40Z" fill="white"/>
</g>
</g>
<path d="M112 108L112 36C112 33.7909 110.209 32 108 32L53.3761 32C50.6967 32 48.7749 34.5829 49.5448 37.1494L72 112L108 112C110.209 112 112 110.209 112 108Z" fill="url(#paint3_linear_763_2)"/>
<path d="M72 112L80 96H56L72 112Z" fill="url(#paint4_linear_763_2)"/>
<g filter="url(#filter3_i_763_2)">
<path d="M97.1429 65.7586H100.571C99.166 69.9883 97.5613 73.0505 95.0276 75.6515C94.1422 76.5604 93.1434 77.413 92 78.2394C89.7699 79.8513 86.9897 81.3636 83.4286 83L80 79.5517C83.7318 78.28 86.6285 77.0811 88.9724 75.6515C90.0988 74.9645 91.0976 74.2243 92 73.3971C94.1059 71.4669 95.6874 69.0634 97.1429 65.7586Z" fill="#585858"/>
<path d="M92 78.2394C94.2301 79.8513 97.0103 81.3636 100.571 83L104 79.5517C100.268 78.28 97.3715 77.0811 95.0276 75.6515C94.1422 76.5604 93.1434 77.413 92 78.2394Z" fill="#585858"/>
<path d="M86.8571 65.7586H83.4286C84.834 69.9883 86.4387 73.0505 88.9724 75.6515C90.0988 74.9645 91.0976 74.2243 92 73.3971C89.8941 71.4669 88.3126 69.0634 86.8571 65.7586Z" fill="#585858"/>
<path d="M89.4286 58V61.4483H80V65.7586H83.4286H86.8571H97.1429H100.571H104V61.4483H94.5714V58H89.4286Z" fill="#585858"/>
</g>
<path d="M16 20V92C16 94.2091 17.7909 96 20 96H80L56 16H20C17.7909 16 16 17.7909 16 20Z" fill="url(#paint5_linear_763_2)"/>
<g filter="url(#filter4_i_763_2)">
<path fill-rule="evenodd" clip-rule="evenodd" d="M36 41H48L56 72H48L46 64.25H38L36 72H28L36 41ZM40 56.5L42 48.75L44 56.5H40Z" fill="white"/>
</g>
</g>
<defs>
<filter id="filter0_f_763_2" x="0" y="0" width="128" height="128" filterUnits="userSpaceOnUse" color-interpolation-filters="sRGB">
<feFlood flood-opacity="0" result="BackgroundImageFix"/>
<feBlend mode="normal" in="SourceGraphic" in2="BackgroundImageFix" result="shape"/>
<feGaussianBlur stdDeviation="8" result="effect1_foregroundBlur_763_2"/>
</filter>
<filter id="filter1_i_763_2" x="80" y="58" width="24" height="25" filterUnits="userSpaceOnUse" color-interpolation-filters="sRGB">
<feFlood flood-opacity="0" result="BackgroundImageFix"/>
<feBlend mode="normal" in="SourceGraphic" in2="BackgroundImageFix" result="shape"/>
<feColorMatrix in="SourceAlpha" type="matrix" values="0 0 0 0 0 0 0 0 0 0 0 0 0 0 0 0 0 0 127 0" result="hardAlpha"/>
<feOffset/>
<feGaussianBlur stdDeviation="2"/>
<feComposite in2="hardAlpha" operator="arithmetic" k2="-1" k3="1"/>
<feColorMatrix type="matrix" values="0 0 0 0 0.899038 0 0 0 0 0.899038 0 0 0 0 0.899038 0 0 0 0.72 0"/>
<feBlend mode="normal" in2="shape" result="effect1_innerShadow_763_2"/>
</filter>
<filter id="filter2_i_763_2" x="28" y="41" width="28" height="31" filterUnits="userSpaceOnUse" color-interpolation-filters="sRGB">
<feFlood flood-opacity="0" result="BackgroundImageFix"/>
<feBlend mode="normal" in="SourceGraphic" in2="BackgroundImageFix" result="shape"/>
<feColorMatrix in="SourceAlpha" type="matrix" values="0 0 0 0 0 0 0 0 0 0 0 0 0 0 0 0 0 0 127 0" result="hardAlpha"/>
<feOffset/>
<feGaussianBlur stdDeviation="2"/>
<feComposite in2="hardAlpha" operator="arithmetic" k2="-1" k3="1"/>
<feColorMatrix type="matrix" values="0 0 0 0 0 0 0 0 0 0 0 0 0 0 0 0 0 0 0.5 0"/>
<feBlend mode="normal" in2="shape" result="effect1_innerShadow_763_2"/>
</filter>
<filter id="filter3_i_763_2" x="80" y="58" width="24" height="25" filterUnits="userSpaceOnUse" color-interpolation-filters="sRGB">
<feFlood flood-opacity="0" result="BackgroundImageFix"/>
<feBlend mode="normal" in="SourceGraphic" in2="BackgroundImageFix" result="shape"/>
<feColorMatrix in="SourceAlpha" type="matrix" values="0 0 0 0 0 0 0 0 0 0 0 0 0 0 0 0 0 0 127 0" result="hardAlpha"/>
<feOffset/>
<feGaussianBlur stdDeviation="2"/>
<feComposite in2="hardAlpha" operator="arithmetic" k2="-1" k3="1"/>
<feColorMatrix type="matrix" values="0 0 0 0 0.899038 0 0 0 0 0.899038 0 0 0 0 0.899038 0 0 0 0.72 0"/>
<feBlend mode="normal" in2="shape" result="effect1_innerShadow_763_2"/>
</filter>
<filter id="filter4_i_763_2" x="28" y="41" width="28" height="31" filterUnits="userSpaceOnUse" color-interpolation-filters="sRGB">
<feFlood flood-opacity="0" result="BackgroundImageFix"/>
<feBlend mode="normal" in="SourceGraphic" in2="BackgroundImageFix" result="shape"/>
<feColorMatrix in="SourceAlpha" type="matrix" values="0 0 0 0 0 0 0 0 0 0 0 0 0 0 0 0 0 0 127 0" result="hardAlpha"/>
<feOffset/>
<feGaussianBlur stdDeviation="2"/>
<feComposite in2="hardAlpha" operator="arithmetic" k2="-1" k3="1"/>
<feColorMatrix type="matrix" values="0 0 0 0 0 0 0 0 0 0 0 0 0 0 0 0 0 0 0.5 0"/>
<feBlend mode="normal" in2="shape" result="effect1_innerShadow_763_2"/>
</filter>
<linearGradient id="paint0_linear_763_2" x1="112" y1="64.3332" x2="64" y2="79.6668" gradientUnits="userSpaceOnUse">
<stop stop-color="#D8D8D8"/>
<stop offset="1" stop-color="white"/>
</linearGradient>
<linearGradient id="paint1_linear_763_2" x1="62.9168" y1="110.177" x2="73.0832" y2="97.8225" gradientUnits="userSpaceOnUse">
<stop stop-color="#CBDAE6"/>
<stop offset="1" stop-color="#98A5C1"/>
</linearGradient>
<linearGradient id="paint2_linear_763_2" x1="16" y1="63.6668" x2="64" y2="48.3332" gradientUnits="userSpaceOnUse">
<stop stop-color="#6092FF"/>
<stop offset="1" stop-color="#8CBAFF"/>
</linearGradient>
<linearGradient id="paint3_linear_763_2" x1="112" y1="64.3332" x2="64" y2="79.6668" gradientUnits="userSpaceOnUse">
<stop stop-color="#D8D8D8"/>
<stop offset="1" stop-color="white"/>
</linearGradient>
<linearGradient id="paint4_linear_763_2" x1="62.9168" y1="110.177" x2="73.0832" y2="97.8225" gradientUnits="userSpaceOnUse">
<stop stop-color="#CBDAE6"/>
<stop offset="1" stop-color="#98A5C1"/>
</linearGradient>
<linearGradient id="paint5_linear_763_2" x1="16" y1="63.6668" x2="64" y2="48.3332" gradientUnits="userSpaceOnUse">
<stop stop-color="#6092FF"/>
<stop offset="1" stop-color="#8CBAFF"/>
</linearGradient>
<clipPath id="clip0_763_2">
<rect width="128" height="128" fill="white"/>
</clipPath>
</defs>
</svg>
