<svg width="128" height="128" viewBox="0 0 128 128" fill="none" xmlns="http://www.w3.org/2000/svg">
<g filter="url(#filter0_f_513_164)">
<path d="M72.6667 116H55.3333V98.8055H72.6667V116Z" fill="url(#paint0_linear_513_164)"/>
<path d="M72.6667 81.611H55.3333V51.5208C64 51.5208 68.3333 47.2222 68.3333 38.625C68.3333 30.0278 55.3337 30.0277 38.0007 30.0276H38V12.8331C77 8.53461 90 21.4303 90 38.6248C90 51.5207 85 62 72.6667 64.4165V81.611Z" fill="url(#paint1_linear_513_164)"/>
</g>
<path d="M72.6667 116H55.3333V98.8055H72.6667V116Z" fill="url(#paint2_linear_513_164)"/>
<path d="M72.6667 81.611H55.3333V51.5208C64 51.5208 68.3333 47.2222 68.3333 38.625C68.3333 30.0278 55.3337 30.0277 38.0007 30.0276H38V12.8331C77 8.53461 90 21.4303 90 38.6248C90 51.5207 85 62 72.6667 64.4165V81.611Z" fill="url(#paint3_linear_513_164)"/>
<defs>
<filter id="filter0_f_513_164" x="26" y="0" width="76" height="128" filterUnits="userSpaceOnUse" color-interpolation-filters="sRGB">
<feFlood flood-opacity="0" result="BackgroundImageFix"/>
<feBlend mode="normal" in="SourceGraphic" in2="BackgroundImageFix" result="shape"/>
<feGaussianBlur stdDeviation="6" result="effect1_foregroundBlur_513_164"/>
</filter>
<linearGradient id="paint0_linear_513_164" x1="87.873" y1="12" x2="40.127" y2="116" gradientUnits="userSpaceOnUse">
<stop stop-color="#BDC4CD"/>
<stop offset="0.5" stop-color="#BAC6D7"/>
<stop offset="1" stop-color="#5F6267"/>
</linearGradient>
<linearGradient id="paint1_linear_513_164" x1="87.873" y1="12" x2="40.127" y2="116" gradientUnits="userSpaceOnUse">
<stop stop-color="#BDC4CD"/>
<stop offset="0.5" stop-color="#BAC6D7"/>
<stop offset="1" stop-color="#5F6267"/>
</linearGradient>
<linearGradient id="paint2_linear_513_164" x1="87.873" y1="12" x2="40.127" y2="116" gradientUnits="userSpaceOnUse">
<stop stop-color="#BDC4CD"/>
<stop offset="0.5" stop-color="#BAC6D7"/>
<stop offset="1" stop-color="#5F6267"/>
</linearGradient>
<linearGradient id="paint3_linear_513_164" x1="87.873" y1="12" x2="40.127" y2="116" gradientUnits="userSpaceOnUse">
<stop stop-color="#BDC4CD"/>
<stop offset="0.5" stop-color="#BAC6D7"/>
<stop offset="1" stop-color="#5F6267"/>
</linearGradient>
</defs>
</svg>
