<svg width="128" height="128" viewBox="0 0 128 128" fill="none" xmlns="http://www.w3.org/2000/svg">
<g filter="url(#filter0_f_779_58)">
<path d="M16.1862 31.2558C21.3629 23.5538 31.669 20.6972 41.2963 27.1683L21.2366 57.0134C11.6091 50.5425 10.0389 40.4019 16.1862 31.2558Z" fill="#2EA4F8"/>
<path d="M111.814 96.9272C106.637 104.629 96.3309 107.486 86.7036 101.015L106.763 71.1696C116.391 77.6404 117.961 87.7811 111.814 96.9272Z" fill="#2EA4F8"/>
<path d="M46.0183 8.94629C54.8119 5.9813 64.73 9.98213 68.436 20.9743L34.3608 32.4636C30.6546 21.4716 35.5759 12.4672 46.0183 8.94629Z" fill="#2EA4F8"/>
<path d="M81.9817 119.237C73.1881 122.202 63.27 118.201 59.564 107.209L93.6392 95.7194C97.3454 106.711 92.4241 115.716 81.9817 119.237Z" fill="#2EA4F8"/>
<path d="M111.814 31.2558C106.637 23.5538 96.3309 20.6972 86.7035 27.1683L106.763 57.0134C116.391 50.5425 117.961 40.4019 111.814 31.2558Z" fill="#2EA4F8"/>
<path d="M16.1862 96.9272C21.3629 104.629 31.669 107.486 41.2963 101.015L21.2366 71.1696C11.6091 77.6404 10.0389 87.7811 16.1862 96.9272Z" fill="#2EA4F8"/>
<path d="M81.9816 8.94629C73.188 5.9813 63.2699 9.98213 59.5639 20.9743L93.6391 32.4636C97.3453 21.4716 92.424 12.4672 81.9816 8.94629Z" fill="#2EA4F8"/>
<path d="M46.0182 119.237C54.8117 122.202 64.7299 118.201 68.4359 107.209L34.3607 95.7194C30.6545 106.711 35.5758 115.716 46.0182 119.237Z" fill="#2EA4F8"/>
<path d="M6 63.5116C6 54.2316 12.96 46.1116 24.5601 46.1119L24.5601 82.0719C12.9601 82.0719 6 74.5316 6 63.5116Z" fill="#2EA4F8"/>
<path d="M122 64.6713C122 73.9513 115.04 82.0713 103.44 82.071V46.111C115.04 46.111 122 53.6513 122 64.6713Z" fill="#2EA4F8"/>
<circle cx="64" cy="64.0915" r="50.46" fill="#2EA4F8"/>
</g>
<path d="M16.1862 31.2558C21.3629 23.5538 31.669 20.6972 41.2963 27.1683L21.2366 57.0134C11.6091 50.5425 10.0389 40.4019 16.1862 31.2558Z" fill="#2EA4F8"/>
<path d="M111.814 96.9272C106.637 104.629 96.3309 107.486 86.7036 101.015L106.763 71.1696C116.391 77.6404 117.961 87.7811 111.814 96.9272Z" fill="#2EA4F8"/>
<path d="M46.0183 8.94629C54.8119 5.9813 64.73 9.98213 68.436 20.9743L34.3608 32.4636C30.6546 21.4716 35.5759 12.4672 46.0183 8.94629Z" fill="#2EA4F8"/>
<path d="M81.9817 119.237C73.1881 122.202 63.27 118.201 59.564 107.209L93.6392 95.7194C97.3454 106.711 92.4241 115.716 81.9817 119.237Z" fill="#2EA4F8"/>
<path d="M111.814 31.2558C106.637 23.5538 96.3309 20.6972 86.7035 27.1683L106.763 57.0134C116.391 50.5425 117.961 40.4019 111.814 31.2558Z" fill="#2EA4F8"/>
<path d="M16.1862 96.9272C21.3629 104.629 31.669 107.486 41.2963 101.015L21.2366 71.1696C11.6091 77.6404 10.0389 87.7811 16.1862 96.9272Z" fill="#2EA4F8"/>
<path d="M81.9816 8.94629C73.188 5.9813 63.2699 9.98213 59.5639 20.9743L93.6391 32.4636C97.3453 21.4716 92.424 12.4672 81.9816 8.94629Z" fill="#2EA4F8"/>
<path d="M46.0182 119.237C54.8117 122.202 64.7299 118.201 68.4359 107.209L34.3607 95.7194C30.6545 106.711 35.5758 115.716 46.0182 119.237Z" fill="#2EA4F8"/>
<path d="M6 63.5116C6 54.2316 12.96 46.1116 24.5601 46.1119L24.5601 82.0719C12.9601 82.0719 6 74.5316 6 63.5116Z" fill="#2EA4F8"/>
<path d="M122 64.6713C122 73.9513 115.04 82.0713 103.44 82.071V46.111C115.04 46.111 122 53.6513 122 64.6713Z" fill="#2EA4F8"/>
<circle cx="64" cy="64.0915" r="50.46" fill="#2EA4F8"/>
<path d="M26.88 64.6714L36.16 55.2847L54.72 74.058L91.84 36.5114L101.12 45.898L54.72 92.8314L26.88 64.6714Z" fill="white"/>
<g filter="url(#filter1_f_779_58)">
<path d="M26.88 64.6714L36.16 55.2847L54.72 74.058L91.84 36.5114L101.12 45.898L54.72 92.8314L26.88 64.6714Z" fill="white"/>
</g>
<defs>
<filter id="filter0_f_779_58" x="2" y="4" width="124" height="120.183" filterUnits="userSpaceOnUse" color-interpolation-filters="sRGB">
<feFlood flood-opacity="0" result="BackgroundImageFix"/>
<feBlend mode="normal" in="SourceGraphic" in2="BackgroundImageFix" result="shape"/>
<feGaussianBlur stdDeviation="2" result="effect1_foregroundBlur_779_58"/>
</filter>
<filter id="filter1_f_779_58" x="21.88" y="31.5114" width="84.24" height="66.32" filterUnits="userSpaceOnUse" color-interpolation-filters="sRGB">
<feFlood flood-opacity="0" result="BackgroundImageFix"/>
<feBlend mode="normal" in="SourceGraphic" in2="BackgroundImageFix" result="shape"/>
<feGaussianBlur stdDeviation="2.5" result="effect1_foregroundBlur_779_58"/>
</filter>
</defs>
</svg>
